<svg width="17" height="17" viewBox="0 0 17 17" fill="none" xmlns="http://www.w3.org/2000/svg">
<g id="fa-solid:user-graduate" clip-path="url(#clip0_1182_411)">
<path id="Vector" d="M12.1201 10.6448L8.5 13.8124L4.87991 10.6448C2.16674 10.7477 0 12.6901 0 15.0874V15.4061C0 16.286 0.815848 16.9999 1.82143 16.9999H15.1786C16.1842 16.9999 17 16.286 17 15.4061V15.0874C17 12.6901 14.8333 10.7477 12.1201 10.6448ZM0.516071 2.64946L0.758929 2.69927V4.63833C0.493304 4.77778 0.303571 5.02017 0.303571 5.31235C0.303571 5.59126 0.478125 5.82368 0.724777 5.96645L0.132812 8.03501C0.0683036 8.26411 0.2125 8.49985 0.421205 8.49985H2.00737C2.21607 8.49985 2.36027 8.26411 2.29576 8.03501L1.70379 5.96645C1.95045 5.82368 2.125 5.59126 2.125 5.31235C2.125 5.02017 1.93527 4.77778 1.66964 4.63833V2.89185L4.17411 3.41978C3.84777 3.99087 3.64286 4.62837 3.64286 5.31235C3.64286 7.65981 5.81719 9.56235 8.5 9.56235C11.1828 9.56235 13.3571 7.65981 13.3571 5.31235C13.3571 4.62837 13.156 3.99087 12.8259 3.41978L16.4801 2.64946C17.1708 2.50337 17.1708 1.74966 16.4801 1.60356L9.25513 0.0762207C8.76183 -0.026709 8.24196 -0.026709 7.74866 0.0762207L0.516071 1.60024C-0.170759 1.74634 -0.170759 2.50337 0.516071 2.64946Z" fill="#335F79"/>
</g>
<defs>
<clipPath id="clip0_1182_411">
<rect width="17" height="17" fill="white"/>
</clipPath>
</defs>
</svg>
