<svg width="20" height="20" viewBox="0 0 20 20" fill="none" xmlns="http://www.w3.org/2000/svg">
<g id="solar:gallery-bold" clip-path="url(#clip0_1182_429)">
<g id="Group">
<path id="Vector" d="M14.507 9.06454C14.507 9.45928 14.3502 9.83786 14.0711 10.117C13.792 10.3961 13.4134 10.5529 13.0186 10.5529C12.6239 10.5529 12.2453 10.3961 11.9662 10.117C11.6871 9.83786 11.5303 9.45928 11.5303 9.06454C11.5303 8.6698 11.6871 8.29123 11.9662 8.01211C12.2453 7.73298 12.6239 7.57617 13.0186 7.57617C13.4134 7.57617 13.792 7.73298 14.0711 8.01211C14.3502 8.29123 14.507 8.6698 14.507 9.06454Z" fill="#335F79"/>
<path id="Vector_2" fill-rule="evenodd" clip-rule="evenodd" d="M9.99908 4.04199H10.0839C11.8022 4.04199 13.1485 4.04199 14.1993 4.18339C15.2739 4.32776 16.1222 4.6299 16.7883 5.2952C17.4543 5.96125 17.7557 6.80962 17.9001 7.88497C18.0415 8.93502 18.0415 10.2812 18.0415 11.9996V12.0651C18.0415 13.4857 18.0415 14.6481 17.9641 15.5947C17.8867 16.5473 17.7282 17.3413 17.3725 18.0022C17.2162 18.2932 17.0227 18.5544 16.7883 18.7888C16.1222 19.4548 15.2739 19.7562 14.1985 19.9006C13.1485 20.042 11.8022 20.042 10.0839 20.042H9.99908C8.28076 20.042 6.93453 20.042 5.88374 19.9006C4.80913 19.7562 3.96076 19.4541 3.29471 18.7888C2.70457 18.1986 2.39946 17.4641 2.23797 16.5518C2.07797 15.6565 2.04895 14.5425 2.04299 13.1598C2.0415 12.8078 2.0415 12.4357 2.0415 12.0427V11.9996C2.0415 10.2812 2.0415 8.93502 2.1829 7.88422C2.32727 6.80962 2.62941 5.96125 3.29471 5.2952C3.96076 4.62915 4.80913 4.32776 5.88448 4.18339C6.93453 4.04199 8.28076 4.04199 9.99908 4.04199ZM6.03257 5.28925C5.0815 5.41725 4.50774 5.66134 4.08429 6.08478C3.66011 6.50897 3.41676 7.08199 3.28876 8.03381C3.15927 9.00125 3.15778 10.2723 3.15778 12.042V12.6701L3.90271 12.0174C4.22956 11.7315 4.65287 11.5805 5.08688 11.595C5.5209 11.6095 5.93318 11.7885 6.2402 12.0956L9.43276 15.2881C9.6805 15.5358 10.0077 15.6882 10.3567 15.7184C10.7057 15.7486 11.0542 15.6548 11.3409 15.4533L11.5626 15.2971C11.9762 15.0065 12.476 14.8648 12.9805 14.8952C13.485 14.9256 13.9643 15.1263 14.3399 15.4645L16.446 17.3599C16.6588 16.9149 16.7846 16.33 16.8516 15.5047C16.9245 14.6079 16.9252 13.4902 16.9252 12.042C16.9252 10.2723 16.9237 9.00125 16.7942 8.03381C16.6662 7.08199 16.4222 6.50822 15.9987 6.08404C15.5745 5.6606 15.0015 5.41725 14.0497 5.28925C13.0822 5.15976 11.8112 5.15827 10.0415 5.15827C8.27183 5.15827 7.00002 5.15976 6.03257 5.28925Z" fill="#335F79"/>
</g>
</g>
<defs>
<clipPath id="clip0_1182_429">
<rect width="20" height="20" fill="white"/>
</clipPath>
</defs>
</svg>
