<svg width="27" height="27" viewBox="0 0 27 27" fill="none" xmlns="http://www.w3.org/2000/svg">
<g clip-path="url(#clip0_1219_98)">
<path d="M20.6719 0H6.32812C2.8332 0 0 2.8332 0 6.32812V20.6719C0 24.1668 2.8332 27 6.32812 27H20.6719C24.1668 27 27 24.1668 27 20.6719V6.32812C27 2.8332 24.1668 0 20.6719 0Z" fill="white"/>
<path d="M20.6719 0H6.32812C2.8332 0 0 2.8332 0 6.32812V20.6719C0 24.1668 2.8332 27 6.32812 27H20.6719C24.1668 27 27 24.1668 27 20.6719V6.32812C27 2.8332 24.1668 0 20.6719 0Z" fill="#0A66C2"/>
<path d="M19.4817 22.959H22.5687C22.6806 22.959 22.7879 22.9145 22.867 22.8354C22.9461 22.7563 22.9906 22.6491 22.9906 22.5372L22.9922 16.0148C22.9922 12.6057 22.2576 9.98536 18.2737 9.98536C16.7593 9.92904 15.3311 10.7097 14.5605 12.0133C14.5567 12.0196 14.551 12.0246 14.5442 12.0273C14.5373 12.0301 14.5298 12.0306 14.5227 12.0286C14.5156 12.0267 14.5093 12.0225 14.5048 12.0167C14.5003 12.0108 14.4978 12.0037 14.4977 11.9963V10.722C14.4977 10.6101 14.4533 10.5028 14.3742 10.4236C14.2951 10.3445 14.1877 10.3001 14.0759 10.3001H11.1463C11.0344 10.3001 10.9271 10.3445 10.8479 10.4236C10.7688 10.5028 10.7244 10.6101 10.7244 10.722V22.5366C10.7244 22.6485 10.7688 22.7558 10.8479 22.8349C10.9271 22.914 11.0344 22.9584 11.1463 22.9584H14.2331C14.345 22.9584 14.4523 22.914 14.5314 22.8349C14.6105 22.7558 14.655 22.6485 14.655 22.5366V16.6964C14.655 15.0451 14.9682 13.4459 17.0155 13.4459C19.0336 13.4459 19.0598 15.3355 19.0598 16.8034V22.5371C19.0598 22.649 19.1042 22.7563 19.1833 22.8354C19.2625 22.9145 19.3698 22.959 19.4817 22.959ZM4.00781 6.28879C4.00781 7.54017 5.03793 8.56976 6.28931 8.56976C7.54038 8.56965 8.56986 7.53943 8.56986 6.28836C8.56965 5.03729 7.54007 4.00781 6.28889 4.00781C5.0374 4.00781 4.00781 5.0375 4.00781 6.28879ZM4.74177 22.959H7.83274C7.94463 22.959 8.05194 22.9145 8.13105 22.8354C8.21017 22.7563 8.25462 22.649 8.25462 22.5371V10.722C8.25462 10.6101 8.21017 10.5028 8.13105 10.4236C8.05194 10.3445 7.94463 10.3001 7.83274 10.3001H4.74177C4.62988 10.3001 4.52258 10.3445 4.44346 10.4236C4.36434 10.5028 4.31989 10.6101 4.31989 10.722V22.5371C4.31989 22.649 4.36434 22.7563 4.44346 22.8354C4.52258 22.9145 4.62988 22.959 4.74177 22.959Z" fill="white"/>
</g>
<defs>
<clipPath id="clip0_1219_98">
<rect width="27" height="27" fill="white"/>
</clipPath>
</defs>
</svg>
