<svg width="531" height="514" viewBox="0 0 531 514" fill="none" xmlns="http://www.w3.org/2000/svg">
<path d="M48.9607 500.285C47.4538 498.993 44.1 494.903 46.6947 490.155C47.6351 488.411 49.6519 487.549 51.4761 486.756C53.3524 486.121 55.1213 485.204 56.7221 484.037C59.5661 481.612 60.3479 477.601 62.2401 474.372C64.4042 470.667 68.4492 467.891 72.7208 468.084C77.6155 468.31 81.6945 472.299 83.5527 476.865C85.4109 481.431 85.4676 486.473 85.5015 491.402C85.5015 494.121 85.3996 497.192 83.4054 499.027C81.4112 500.863 78.7826 500.738 76.2899 500.67L49.5499 499.843" fill="#F5F5F5"/>
<path d="M100.084 426.738H29.6987L42.3662 502.279C42.6282 503.854 43.3315 505.322 44.3945 506.513C45.4574 507.704 46.8364 508.57 48.3714 509.009L48.6206 509.077C48.8251 509.142 49.0332 509.195 49.2438 509.236C49.714 509.332 50.1916 509.389 50.6714 509.405V509.473L51.0114 509.417H82.4308C83.0091 509.418 83.586 509.361 84.153 509.247C85.9817 508.963 87.6672 508.088 88.9521 506.756C90.2369 505.424 91.0505 503.708 91.2686 501.871L97.3757 449.818L97.6476 447.745L100.072 427.124L100.084 426.738ZM86.8157 474.927H79.5528L80.3233 453.048H88.6852L86.8157 474.927ZM89.3877 453.048H96.2993L93.7273 474.972H87.4842L89.3877 453.048ZM68.7662 499.276L68.3243 480.241H78.7144L78.0912 499.287L68.7662 499.276ZM57.5264 480.241H67.6219L68.0637 499.287H58.9994L57.5264 480.241ZM58.3082 499.287H49.8443C49.0399 494.143 47.9861 487.458 46.8531 480.241H56.8239L58.3082 499.287ZM57.1751 474.983L55.4189 453.048H66.9987L67.5086 474.972L57.1751 474.983ZM68.2564 474.983L67.7012 453.048H79.6208L78.8957 474.972L68.2564 474.983ZM67.6332 447.79L67.0893 427.441H80.4706L79.8021 447.745L67.6332 447.79ZM66.9307 447.79H54.9997L53.4248 427.441H66.4095L66.9307 447.79ZM54.3652 447.79H41.743C41.3011 444.98 40.8706 442.329 40.4967 439.938C39.1823 431.735 38.6951 428.608 38.4232 427.475H52.7223L54.3652 447.79ZM54.7731 453.048L56.4727 474.972H46.026C45.6747 472.706 45.3235 470.497 44.9722 468.242C44.1564 463.064 43.3406 457.897 42.5702 453.048H54.7731ZM45.3801 474.972H38.5818L34.8541 453.048H41.8677C42.9441 459.778 44.1224 467.324 45.3235 474.927L45.3801 474.972ZM46.2072 480.229C47.2383 486.824 48.2581 493.316 49.1872 499.276H42.6155L39.4203 480.241L46.2072 480.229ZM78.839 499.276L79.4169 480.241H86.3511L84.7195 499.287L78.839 499.276ZM80.5499 447.79L81.2298 427.486H90.8833L89.1498 447.79H80.5499ZM37.7547 427.441C38.0266 428.902 39.3183 436.902 41.0292 447.745H33.9703L30.5712 427.441H37.7547ZM90.8833 499.231H85.4447L87.065 480.241H93.1494L90.8833 499.231ZM96.9225 447.745H89.8296L91.5632 427.441H99.2906L96.9225 447.745Z" fill="#E0E0E0"/>
<path d="M155.614 21.2314H42.196V185.625H155.614V21.2314Z" fill="#E0E0E0"/>
<path d="M149.938 21.2314H36.5198V185.625H149.938V21.2314Z" fill="#F5F5F5"/>
<path d="M135.843 39.0322H50.6038V167.814H135.843V39.0322Z" fill="white"/>
<path d="M135.842 167.814C135.842 167.814 135.842 167.599 135.842 167.179C135.842 166.76 135.842 166.148 135.842 165.355C135.842 163.735 135.842 161.367 135.842 158.296C135.842 152.121 135.842 143.125 135.763 131.772C135.763 109.111 135.684 76.8982 135.627 39.0317L135.91 39.315H50.6823L50.9996 39.0091C50.9996 87.5942 50.9996 132.384 50.9316 167.791L50.6823 167.542L112.728 167.678L129.871 167.735H134.403C135.412 167.735 135.956 167.735 135.956 167.735C135.956 167.735 135.457 167.735 134.449 167.735H129.996L112.909 167.791L50.7163 167.927H50.4784V167.678C50.4784 132.27 50.4784 87.4809 50.4104 38.8958V38.5898H50.7277H135.956H136.239V38.8731C136.182 76.8189 136.137 109.043 136.103 131.783C136.103 143.114 136.035 152.087 136.024 158.251C136.024 161.299 136.024 163.644 136.024 165.253C136.024 166.035 136.024 166.636 136.024 167.044C136.024 167.451 135.842 167.814 135.842 167.814Z" fill="#E0E0E0"/>
<path d="M150.255 21.2314C149.658 22.2618 148.98 23.2431 148.227 24.166C146.913 25.9223 145.043 28.3243 142.913 30.9643C140.783 33.6043 138.777 35.8478 137.304 37.4794C136.55 38.3972 135.716 39.2465 134.812 40.0174C135.451 39.0169 136.175 38.073 136.976 37.1961C138.494 35.3492 140.375 33.0718 142.437 30.5678L147.887 23.9394C148.597 22.97 149.389 22.064 150.255 21.2314Z" fill="#E0E0E0"/>
<path d="M136.274 167.396C140.512 174.134 145.499 180.372 151.139 185.989L136.274 167.396Z" fill="white"/>
<path d="M151.138 185.989C150.196 185.297 149.33 184.507 148.555 183.632C146.554 181.629 144.663 179.518 142.89 177.31C141.124 175.109 139.475 172.817 137.95 170.443C137.266 169.491 136.685 168.47 136.216 167.396C136.981 168.281 137.682 169.22 138.312 170.205C139.559 171.962 141.315 174.352 143.366 176.924C145.416 179.496 147.377 181.729 148.816 183.338C149.652 184.165 150.428 185.051 151.138 185.989Z" fill="#E0E0E0"/>
<path d="M36.4973 185.49L51.3516 167.157L36.4973 185.49Z" fill="white"/>
<path d="M51.3519 167.157C49.1283 170.404 46.7302 173.529 44.1684 176.516C41.7703 179.64 39.2098 182.635 36.4976 185.49C36.373 185.388 39.5909 181.196 43.6925 176.131C46.0929 173.013 48.6493 170.018 51.3519 167.157Z" fill="#E0E0E0"/>
<path d="M36.4973 21.2314C39.052 23.9706 41.4575 26.8451 43.7035 29.8426C46.1095 32.7202 48.3563 35.7273 50.4338 38.8503C47.8983 36.109 45.5153 33.2305 43.2956 30.2279C40.8668 27.3556 38.5973 24.3522 36.4973 21.2314Z" fill="#E0E0E0"/>
<path d="M109.284 65.1826H80.7427V146.218H109.284V65.1826Z" fill="#E0E0E0"/>
<path d="M499.766 10.2188H392.705V121.824H499.766V10.2188Z" fill="#E0E0E0"/>
<path d="M492.515 10.2188H385.454V121.824H492.515V10.2188Z" fill="#FAFAFA"/>
<path d="M492.549 121.858H385.476V10.1846H492.549V121.858ZM385.476 121.79H492.469V10.2526H385.476V121.79Z" fill="#E0E0E0"/>
<path d="M478.125 25.2197H399.843V106.822H478.125V25.2197Z" fill="white"/>
<path d="M399.842 107.366C399.289 108.193 398.643 108.953 397.916 109.632C396.659 110.947 394.902 112.737 392.942 114.674C390.982 116.612 389.158 118.345 387.821 119.569C387.142 120.283 386.382 120.915 385.555 121.45C386.11 120.625 386.757 119.865 387.481 119.184C388.727 117.87 390.495 116.079 392.466 114.131C394.438 112.182 396.262 110.448 397.588 109.224C398.262 108.516 399.019 107.892 399.842 107.366Z" fill="#E0E0E0"/>
<path d="M478.126 107.162C478.956 107.711 479.716 108.358 480.392 109.088C481.718 110.346 483.497 112.102 485.434 114.074C487.372 116.045 489.105 117.847 490.34 119.184C491.055 119.862 491.686 120.623 492.221 121.45C491.394 120.897 490.634 120.25 489.955 119.524C488.641 118.277 486.85 116.51 484.902 114.538C482.953 112.567 481.231 110.743 479.996 109.417C479.288 108.74 478.66 107.983 478.126 107.162Z" fill="#E0E0E0"/>
<path d="M477.91 25.435C478.467 24.6075 479.117 23.8471 479.848 23.1689C481.094 21.8432 482.85 20.0643 484.822 18.1268C486.793 16.1893 488.595 14.4557 489.932 13.232C490.609 12.5127 491.369 11.8774 492.198 11.3398C491.649 12.17 491.003 12.9308 490.272 13.6059C489.025 14.9203 487.258 16.7105 485.286 18.6593C483.315 20.6082 481.502 22.3304 480.165 23.5654C479.491 24.2765 478.734 24.9041 477.91 25.435Z" fill="#E0E0E0"/>
<path d="M399.627 25.6393C398.8 25.0829 398.039 24.4328 397.361 23.7018C396.047 22.4554 394.257 20.6992 392.319 18.7277C390.382 16.7562 388.648 14.9433 387.424 13.6177C386.705 12.9409 386.07 12.1801 385.532 11.3516C386.362 11.9001 387.123 12.5468 387.798 13.2777C389.113 14.5241 390.903 16.2803 392.852 18.2632C394.801 20.246 396.523 22.0475 397.758 23.3845C398.473 24.0548 399.101 24.8123 399.627 25.6393Z" fill="#E0E0E0"/>
<path d="M477.909 106.823C477.909 106.823 477.909 106.675 477.909 106.426C477.909 106.177 477.909 105.769 477.909 105.293C477.909 104.273 477.909 102.8 477.909 100.885C477.909 97.0216 477.909 91.4017 477.83 84.2635C477.83 69.9645 477.739 49.6036 477.672 25.2317L477.977 25.5263H399.922L400.273 25.1864C400.273 55.1329 400.273 83.1531 400.216 106.766L399.922 106.46L456.45 106.619L472.312 106.698H476.516H477.649C477.773 106.689 477.898 106.689 478.023 106.698H477.683H476.629H472.482L456.676 106.777L399.956 106.924H399.661V106.63C399.661 82.9945 399.661 54.9742 399.661 25.0504V24.8691H400.012H478.068H478.374V25.1751C478.306 49.6262 478.249 70.0551 478.215 84.3995C478.215 91.5037 478.215 97.1123 478.136 100.953C478.136 102.842 478.136 104.292 478.136 105.304C478.136 105.78 478.136 106.143 478.136 106.437C478.073 106.573 477.997 106.702 477.909 106.823Z" fill="#E0E0E0"/>
<path d="M452.042 52.957H425.925V79.0738H452.042V52.957Z" fill="#EBEBEB"/>
<path d="M329.242 473.646V507.763H379.13H434.162V473.646H329.242Z" fill="#F5F5F5"/>
<path d="M324.834 464.105V473.646H437.822V464.105H379.13H324.834Z" fill="#E0E0E0"/>
<path d="M381.329 507.762H434.163V473.646H437.823V464.105H379.131V472.762L381.329 507.762Z" fill="#E0E0E0"/>
<path d="M365.195 479.143H343.916V484.275H365.195V479.143Z" fill="#E0E0E0"/>
<path d="M368.492 490.699H341.174V501.542H368.492V490.699Z" fill="white"/>
<path d="M345.376 430.035V464.151H395.276H450.297V430.035H345.376Z" fill="#F5F5F5"/>
<path d="M341.48 420.496V430.036H454.479V420.496H395.776H341.48Z" fill="#EBEBEB"/>
<path d="M397.475 464.152H450.808V430.036H453.969V420.496H395.277V429.153L397.475 464.152Z" fill="#EBEBEB"/>
<path d="M381.328 435.531H360.05V440.664H381.328V435.531Z" fill="#E0E0E0"/>
<path d="M384.638 447.088H357.32V457.931H384.638V447.088Z" fill="white"/>
<path d="M530.742 508.886C530.742 509.044 411.92 509.18 265.383 509.18C118.845 509.18 0 509.044 0 508.886C0 508.727 118.8 508.568 265.371 508.568C411.942 508.568 530.742 508.716 530.742 508.886Z" fill="#263238"/>
<path d="M262.811 224.614V225.747H258.279V224.852L260.885 221.77H258.347V220.637H262.755V221.532L260.149 224.614H262.811Z" fill="#263238"/>
<path d="M254.506 219.64V222.314H243.844V220.218L249.94 213.012H244.002V210.338H254.324V212.434L248.206 219.64H254.506Z" fill="#263238"/>
<path d="M239.233 213.51V218.892H217.705V214.677L229.998 200.14H218.022V194.713H238.825V198.928L226.542 213.465L239.233 213.51Z" fill="#263238"/>
<path d="M233.647 148.417H217.206V169.571H186.727V148.417H128.273V128.022L177.855 59.0078H210.238L165.222 123.592H187.656V104.828H217.183V123.626H233.647V148.417Z" fill="#0C314D"/>
<path d="M239.935 114.267C239.935 77.7938 260.466 56.7871 288.735 56.7871C317.005 56.7871 337.377 77.8278 337.377 114.267C337.377 150.705 316.846 171.746 288.735 171.746C260.625 171.746 239.935 150.785 239.935 114.267ZM305.946 114.267C305.946 91.0505 298.684 82.3713 288.735 82.3713C278.787 82.3713 271.366 91.0505 271.366 114.267C271.366 137.483 278.629 146.173 288.735 146.173C298.842 146.173 305.946 137.517 305.946 114.267Z" fill="#0C314D"/>
<path d="M452.325 148.417H435.896V169.571H405.417V148.417H346.952V128.022L396.545 59.0078H428.916L383.912 123.592H406.335V104.828H435.862V123.626H452.325V148.417Z" fill="#0C314D"/>
<g opacity="0.3">
<path d="M233.647 148.417H217.207V169.571H186.728V148.417H128.274V128.022L177.856 59.0078H210.239L165.223 123.592H187.657V104.828H217.184V123.626H233.647V148.417Z" fill="black"/>
<path d="M239.936 114.267C239.936 77.7938 260.466 56.7871 288.736 56.7871C317.005 56.7871 337.378 77.8278 337.378 114.267C337.378 150.705 316.847 171.746 288.736 171.746C260.625 171.746 239.936 150.785 239.936 114.267ZM305.947 114.267C305.947 91.0505 298.684 82.3713 288.736 82.3713C278.788 82.3713 271.366 91.0505 271.366 114.267C271.366 137.483 278.629 146.173 288.736 146.173C298.843 146.173 305.947 137.517 305.947 114.267Z" fill="black"/>
<path d="M452.326 148.417H435.897V169.571H405.418V148.417H346.953V128.022L396.546 59.0078H428.917L383.913 123.592H406.336V104.828H435.863V123.626H452.326V148.417Z" fill="black"/>
</g>
<path d="M224.48 148.417H208.051V169.571H177.572V148.417H119.14V128.022L168.734 59.0078H201.105L156.1 123.592H178.523V104.828H208.051V123.626H224.48V148.417Z" fill="#335F79"/>
<path d="M230.78 114.267C230.78 77.7938 251.311 56.7871 279.58 56.7871C307.85 56.7871 328.222 77.8278 328.222 114.267C328.222 150.705 307.691 171.746 279.58 171.746C251.469 171.746 230.78 150.785 230.78 114.267ZM296.791 114.267C296.791 91.0505 289.528 82.3713 279.58 82.3713C269.632 82.3713 262.211 91.0505 262.211 114.267C262.211 137.483 269.473 146.173 279.58 146.173C289.687 146.173 296.791 137.517 296.791 114.267Z" fill="#335F79"/>
<path d="M443.18 148.417H426.751V169.571H396.272V148.417H337.886V128.022L387.48 59.0078H419.806L374.801 123.592H397.224V104.828H426.751V123.626H443.18V148.417Z" fill="#335F79"/>
<path d="M243.606 31.7582C243.606 25.2205 248.739 20.4277 255.696 20.4277C262.653 20.4277 267.797 25.2092 267.797 31.7582C267.797 38.3072 262.664 43.0887 255.696 43.0887C248.728 43.0887 243.606 38.2846 243.606 31.7582ZM261.577 31.7582C261.611 30.965 261.485 30.173 261.206 29.4298C260.926 28.6867 260.499 28.0079 259.95 27.4343C259.401 26.8607 258.742 26.4042 258.012 26.0923C257.281 25.7804 256.496 25.6196 255.702 25.6196C254.908 25.6196 254.122 25.7804 253.392 26.0923C252.662 26.4042 252.002 26.8607 251.453 27.4343C250.904 28.0079 250.477 28.6867 250.198 29.4298C249.918 30.173 249.792 30.965 249.827 31.7582C249.792 32.5514 249.918 33.3435 250.198 34.0866C250.477 34.8297 250.904 35.5086 251.453 36.0822C252.002 36.6558 252.662 37.1123 253.392 37.4241C254.122 37.736 254.908 37.8968 255.702 37.8968C256.496 37.8968 257.281 37.736 258.012 37.4241C258.742 37.1123 259.401 36.6558 259.95 36.0822C260.499 35.5086 260.926 34.8297 261.206 34.0866C261.485 33.3435 261.611 32.5514 261.577 31.7582Z" fill="#263238"/>
<path d="M269.689 34.1831C269.689 29.107 273.7 25.5039 279.207 25.5039C284.713 25.5039 288.713 29.107 288.713 34.1831C288.713 39.2591 284.77 42.9075 279.207 42.9075C273.643 42.9075 269.689 39.2704 269.689 34.1831ZM282.742 34.1831C282.742 31.6337 281.223 30.1947 279.207 30.1947C277.19 30.1947 275.66 31.6337 275.66 34.1831C275.66 36.7324 277.212 38.2167 279.207 38.2167C281.201 38.2167 282.742 36.7551 282.742 34.1831Z" fill="#263238"/>
<path d="M310.32 34.206C310.32 39.554 306.626 42.9078 302.049 42.9078C301.187 42.9505 300.327 42.8157 299.52 42.5116C298.713 42.2075 297.977 41.7407 297.358 41.1402V48.6637H291.432V25.7874H297.097V27.4643C297.723 26.7811 298.496 26.2495 299.358 25.9098C300.22 25.5702 301.148 25.4314 302.071 25.5042C306.626 25.5042 310.32 28.858 310.32 34.206ZM304.349 34.206C304.349 31.6566 302.797 30.195 300.814 30.195C298.831 30.195 297.267 31.6566 297.267 34.206C297.267 36.7553 298.82 38.217 300.814 38.217C302.808 38.217 304.349 36.7553 304.349 34.206Z" fill="#263238"/>
<path d="M311.725 41.1736L313.493 37.1286C315.284 38.1492 317.311 38.6843 319.373 38.6808C321.356 38.6808 322.013 38.2503 322.013 37.5478C322.013 35.2817 312.065 37.8537 312.065 31.1121C312.065 27.9395 314.988 25.5148 320.268 25.5148C322.566 25.4678 324.843 25.9565 326.919 26.9425L325.152 30.9535C323.669 30.1295 321.999 29.7003 320.302 29.7071C318.308 29.7071 317.594 30.2736 317.594 30.8401C317.594 33.1629 327.508 30.6475 327.508 37.3325C327.508 40.4371 324.653 42.8618 319.181 42.8618C316.593 42.9298 314.031 42.3494 311.725 41.1736Z" fill="#263238"/>
<path d="M329.321 39.6447C329.407 38.7684 329.816 37.9555 330.469 37.364C331.121 36.7726 331.97 36.4451 332.851 36.4451C333.731 36.4451 334.58 36.7726 335.233 37.364C335.885 37.9555 336.294 38.7684 336.38 39.6447C336.329 40.5462 335.935 41.394 335.279 42.0141C334.622 42.6343 333.754 42.9798 332.851 42.9798C331.948 42.9798 331.079 42.6343 330.423 42.0141C329.767 41.394 329.372 40.5462 329.321 39.6447ZM329.321 20.8701H336.346L335.156 34.7046H330.466L329.321 20.8701Z" fill="#263238"/>
<path d="M139.038 404.725H125.056V471.88H139.038V404.725Z" fill="#E0E0E0"/>
<path d="M82.0344 396.078C82.261 396.078 125.09 409.505 125.09 409.505H139.061L188.11 396.078H82.0344Z" fill="#E0E0E0"/>
<path d="M42.9559 170.84C36.7581 172.234 31.2175 177.956 32.1466 189.377C32.1466 189.377 27.2065 190.306 27.5124 199.268C27.8183 208.231 26.9006 263.852 38.0158 294.105C47.1595 318.975 62.9428 372.172 68.3135 390.334C68.8442 392.131 69.9422 393.708 71.4432 394.829C72.9443 395.95 74.7678 396.556 76.6414 396.555H197.56C199.69 396.547 201.797 396.111 203.754 395.272C205.712 394.432 207.48 393.208 208.954 391.67C210.429 390.133 211.578 388.314 212.334 386.323C213.09 384.332 213.437 382.209 213.355 380.08C213.17 375.98 211.404 372.112 208.427 369.287C205.45 366.462 201.494 364.901 197.39 364.931L109.217 365.849C109.217 365.849 103.812 336.73 98.2486 336.39C98.2486 336.39 100.719 318.159 91.4503 312.913C91.4503 312.913 93.2972 290.411 83.417 288.383C83.417 288.383 84.958 269.551 76.6187 266.209C76.6187 266.209 81.2529 249.27 72.6077 240.625C72.6077 240.625 75.0778 220.853 72.6077 206.021C70.1377 191.19 69.2313 164.982 42.9559 170.84Z" fill="#455A64"/>
<path d="M203.758 381.916C203.758 381.916 203.554 381.916 203.146 381.916H201.356L194.411 381.973L168.521 382.052L79.9275 382.154H79.7235L79.6555 381.961L67.192 345.817C59.9518 324.64 53.0969 304.449 47.0578 286.026C45.5508 281.415 44.1005 276.962 42.7408 272.52C42.0365 270.364 41.454 268.17 40.9959 265.948C40.7624 264.863 40.5884 263.767 40.4747 262.663C40.3501 261.53 40.1575 260.487 40.0895 259.411C39.3077 250.811 39.1264 242.766 38.9565 235.435C38.7638 220.774 38.9565 208.899 39.1604 200.708C39.2737 196.617 39.3644 193.445 39.421 191.269L39.523 188.811C39.523 188.255 39.5796 187.983 39.5796 187.983C39.5796 187.983 39.5796 188.267 39.5796 188.811C39.5796 189.354 39.5796 190.204 39.5796 191.269C39.5796 193.445 39.489 196.629 39.421 200.708C39.3077 208.911 39.1604 220.774 39.421 235.435C39.5796 242.755 39.7836 250.788 40.5541 259.365C40.6334 260.498 40.8147 261.507 40.9393 262.595C41.056 263.688 41.2338 264.773 41.4718 265.846C41.9533 268.07 42.5623 270.264 43.296 272.418C44.6557 276.803 46.1173 281.29 47.6356 285.901C53.6974 304.313 60.575 324.493 67.8039 345.67C72.1094 358.133 76.2791 370.348 80.2674 381.825L79.9955 381.633L168.588 381.735L194.479 381.814H201.424H203.214C203.554 381.893 203.758 381.916 203.758 381.916Z" fill="#263238"/>
<path d="M96.0615 365.984C95.7181 366.35 95.3384 366.681 94.9285 366.97C94.1694 367.571 93.093 368.477 91.8013 369.61C88.4298 372.581 85.2932 375.809 82.4196 379.264C79.5487 382.719 76.9356 386.381 74.6016 390.22C73.7065 391.693 73.004 392.906 72.5395 393.755C72.3187 394.208 72.053 394.637 71.7463 395.036C71.8946 394.556 72.0921 394.093 72.3355 393.653C72.7434 392.77 73.3893 391.523 74.239 390.016C76.4834 386.084 79.0692 382.357 81.9664 378.878C84.853 375.396 88.0541 372.188 91.5294 369.293C92.8664 368.16 93.9881 367.333 94.7812 366.789C95.178 366.476 95.6072 366.206 96.0615 365.984Z" fill="#263238"/>
<path d="M109.216 365.804C109.216 365.804 108.921 365.804 108.343 365.804L105.805 365.872L96.0612 366.031H95.9366V365.906L95.7326 364.705C95.6103 364.318 95.4627 363.939 95.2907 363.572C94.8907 362.777 94.1951 362.171 93.3532 361.884C91.38 361.458 89.3189 361.785 87.5747 362.801L87.1668 362.994L87.3141 362.575C88.6815 358.578 88.8781 354.273 87.8806 350.168C86.7571 345.324 84.0546 340.991 80.1985 337.852L80.0512 337.738L80.1192 337.568C81.3359 334.111 81.5009 330.37 80.5935 326.819C79.686 323.268 77.7467 320.065 75.0205 317.615L74.8732 317.502L74.9412 317.321C76.4139 312.546 76.3294 307.426 74.6999 302.703C73.0704 297.979 69.9803 293.896 65.8768 291.045L65.7408 290.955V290.796C65.8318 287.67 65.7335 284.54 65.4462 281.426C65.1763 278.24 64.588 275.09 63.69 272.022C62.7609 269.053 61.3559 266.084 58.8745 264.362L58.6933 264.237L58.7612 264.034C60.0756 259.481 60.5931 254.735 60.2909 250.006C60.1121 247.762 59.6319 245.551 58.8632 243.435C58.0732 241.398 56.9217 239.521 55.4641 237.894L55.3281 237.735L55.4301 237.566C57.915 233.62 59.2782 229.073 59.3731 224.411C59.3914 220.202 58.0215 216.104 55.4754 212.752V212.684V212.604C55.6146 207.009 54.4875 201.455 52.1782 196.357C51.1884 194.292 49.7665 192.464 48.0086 190.997C46.5091 189.79 44.7535 188.941 42.8759 188.516C41.3655 188.191 39.8164 188.084 38.2757 188.199L36.4289 188.403L34.9106 188.708C34.0041 188.878 33.3356 189.128 32.8824 189.23C32.4292 189.332 32.1799 189.4 32.1799 189.4C33.0641 189.081 33.9642 188.809 34.8766 188.584L36.3949 188.244L38.2644 188.006C39.8216 187.869 41.3905 187.961 42.9212 188.278C44.8505 188.683 46.6585 189.532 48.2012 190.759C50.0086 192.241 51.4736 194.096 52.4955 196.198C54.8594 201.342 56.0218 206.956 55.8946 212.616V212.48C58.518 215.903 59.9362 220.098 59.9283 224.411C59.8462 229.173 58.4674 233.823 55.94 237.86V237.532C57.4418 239.196 58.635 241.114 59.4637 243.197C60.2632 245.385 60.7588 247.672 60.9367 249.995C61.2612 254.799 60.7435 259.623 59.4071 264.249L59.1578 263.83C61.8431 265.699 63.2594 268.781 64.2112 271.761C65.1347 274.863 65.7347 278.053 66.0014 281.279C66.2907 284.42 66.3853 287.575 66.2847 290.728L66.16 290.468C70.3745 293.386 73.5488 297.571 75.2217 302.417C76.8946 307.262 76.9789 312.515 75.4624 317.411L75.3831 317.105C78.1908 319.639 80.1797 322.952 81.096 326.621C82.0122 330.29 81.8142 334.148 80.5271 337.704L80.4478 337.421C84.3846 340.629 87.1298 345.066 88.2432 350.021C89.2455 354.206 89.0213 358.592 87.5973 362.654L87.348 362.427C88.3133 361.951 89.3386 361.608 90.3959 361.408C91.3943 361.186 92.4332 361.229 93.4099 361.532C93.8831 361.703 94.3163 361.97 94.6826 362.314C95.049 362.659 95.3408 363.076 95.54 363.538C95.7209 363.942 95.8724 364.358 95.9932 364.784L96.1972 366.031L96.0612 365.906H105.805H108.343L109.216 365.804Z" fill="#263238"/>
<g opacity="0.3">
<path d="M93.0364 312.551L52.5979 317.763C53.2064 318.838 54.0546 319.757 55.0764 320.451C56.0983 321.145 57.2663 321.594 58.4898 321.762C60.9351 322.07 63.4122 322.021 65.8432 321.615C76.3131 320.479 86.8515 320.1 97.376 320.482C96.1968 317.701 94.7431 315.044 93.0364 312.551Z" fill="black"/>
</g>
<path d="M73.0499 238.438C70.2629 238.802 67.4531 238.965 64.6427 238.925C61.8371 239.075 59.0246 239.037 56.2241 238.812C59.0111 238.447 61.8209 238.284 64.6313 238.324C67.4369 238.174 70.2494 238.212 73.0499 238.438Z" fill="#263238"/>
<path d="M72.6753 498.371C72.6753 498.371 79.145 478.633 88.0621 473.852C102.384 466.181 135.412 462.521 135.412 462.521L139.027 471.858C139.027 471.858 94.985 473.591 88.0394 482.474C84.079 487.565 80.3878 492.86 76.9809 498.337L72.6753 498.371Z" fill="#E0E0E0"/>
<path d="M78.3188 508.852C83.4814 508.852 87.6665 504.666 87.6665 499.504C87.6665 494.341 83.4814 490.156 78.3188 490.156C73.1563 490.156 68.9712 494.341 68.9712 499.504C68.9712 504.666 73.1563 508.852 78.3188 508.852Z" fill="#263238"/>
<path d="M192.042 498.02C192.042 498.02 185.572 478.282 176.655 473.5C162.333 465.83 129.316 462.17 129.316 462.17L125.69 471.506C125.69 471.506 169.732 473.24 176.678 482.134C180.64 487.224 184.331 492.519 187.736 497.997L192.042 498.02Z" fill="#E0E0E0"/>
<path d="M188.745 508.852C193.908 508.852 198.093 504.666 198.093 499.504C198.093 494.341 193.908 490.156 188.745 490.156C183.583 490.156 179.397 494.341 179.397 499.504C179.397 504.666 183.583 508.852 188.745 508.852Z" fill="#263238"/>
<path d="M127.221 467.551L129.272 492.954L135.05 494.098V467.551" fill="#E0E0E0"/>
<path d="M132.036 508.852C137.198 508.852 141.383 504.666 141.383 499.504C141.383 494.341 137.198 490.156 132.036 490.156C126.873 490.156 122.688 494.341 122.688 499.504C122.688 504.666 126.873 508.852 132.036 508.852Z" fill="#263238"/>
<path d="M62.5581 268.633C64.8036 267.872 67.1076 267.296 69.447 266.91C71.7495 266.339 74.0954 265.96 76.4606 265.777C74.2156 266.54 71.9115 267.116 69.5717 267.5C67.2688 268.069 64.9231 268.448 62.5581 268.633Z" fill="#263238"/>
<path d="M82.5903 288.406C81.8516 288.755 81.0709 289.006 80.2675 289.154C78.8059 289.528 76.7777 289.959 74.5116 290.287C72.2455 290.616 70.1834 290.854 68.6878 290.944C67.8794 291.053 67.0601 291.053 66.2517 290.944C66.2517 290.774 69.9228 290.423 74.421 289.709C78.9192 288.995 82.5449 288.248 82.5903 288.406Z" fill="#263238"/>
<path d="M99.291 337.375C98.412 337.62 97.5065 337.757 96.5944 337.783C94.9175 337.953 92.5947 338.1 90.0227 338.18C87.4507 338.259 85.1279 338.18 83.4397 338.18C82.5298 338.203 81.6205 338.115 80.7317 337.919C81.6306 337.776 82.5415 337.723 83.451 337.76L90.0114 337.613L96.5604 337.387C97.4679 337.292 98.3827 337.288 99.291 337.375Z" fill="#263238"/>
<path d="M103.993 355.119C103.993 355.3 100.231 356.116 95.846 357.986C91.4611 359.855 88.2206 361.985 88.1187 361.838C88.7172 361.225 89.4048 360.705 90.1581 360.297C91.8972 359.197 93.7238 358.242 95.6194 357.442C97.5105 356.636 99.4663 355.992 101.466 355.516C102.287 355.273 103.137 355.14 103.993 355.119Z" fill="#263238"/>
<path d="M179.59 396.77C179.59 396.928 157.303 397.019 129.815 396.951C102.327 396.883 80.0291 396.724 80.0291 396.555C80.0291 396.385 102.316 396.305 129.815 396.362C157.314 396.419 179.59 396.6 179.59 396.77Z" fill="#263238"/>
<path d="M138.336 409.992C136.132 410.29 133.906 410.388 131.685 410.286C129.459 410.389 127.23 410.29 125.022 409.992C127.23 409.701 129.459 409.602 131.685 409.697C133.906 409.602 136.131 409.701 138.336 409.992Z" fill="#263238"/>
<path d="M138.971 464.129C136.926 465.281 134.63 465.915 132.284 465.976C129.938 466.037 127.612 465.524 125.51 464.48C127.733 465.046 130.015 465.35 132.308 465.387C134.57 465.225 136.806 464.803 138.971 464.129Z" fill="#263238"/>
<path d="M276.613 254.232C276.613 254.232 271.287 246.063 268.205 243.276C265.826 241.134 254.28 236.885 249.091 235.038C247.427 234.45 245.677 234.144 243.913 234.132C237.114 234.064 219.144 234.132 209.989 235.763C198.579 237.848 274.278 297.379 274.278 297.379L337.333 297.526L341.457 281.958L299.364 273.267L276.137 254.844" fill="#E0E0E0"/>
<g opacity="0.3">
<path d="M227.417 237.917C227.417 237.917 231.587 238.121 237.399 239.05C243.212 239.979 249.591 240.274 252.786 243.106C254.927 244.999 268.025 245.372 268.025 245.372L249.897 244.704L227.417 237.917Z" fill="black"/>
</g>
<path d="M221.434 236.421C221.816 236.416 222.197 236.462 222.567 236.557C223.304 236.693 224.38 236.909 225.683 237.237C228.3 237.883 231.881 238.88 235.812 240.058L240.152 241.407H240.084C243.04 241.538 245.977 241.952 248.854 242.642C249.094 243.085 249.276 243.557 249.398 244.047C249.095 243.645 248.837 243.212 248.627 242.755L248.695 242.823C245.812 242.338 242.903 242.032 239.982 241.905H239.914L235.563 240.591L225.502 237.611L222.442 236.739C222.095 236.675 221.756 236.568 221.434 236.421Z" fill="#263238"/>
<path d="M386.157 296.936C386.247 296.46 384.91 291.033 384.774 290.489C384.638 289.945 380.491 283.691 380.491 283.691L378.225 283C378.225 283 367.688 280.496 365.558 280.643L364.074 280.802C364.074 280.802 361.309 281.006 360.221 281.198C359.133 281.391 352.392 283.759 352.392 283.759C350.739 284.109 349.047 284.234 347.361 284.133C345.036 283.756 342.733 283.257 340.461 282.637L337.764 297.48L342.863 297.321C344.454 297.886 346.098 298.292 347.769 298.534C349.604 298.658 354.805 299.225 354.805 299.225C354.805 299.225 362.838 302.624 364.855 297.888C366.872 293.152 359.122 292.665 359.122 292.665L361.524 290.965L367.677 290.331L369.274 290.84L371.03 293.56C371.03 293.56 370.555 299.565 374.43 299.157L375.449 299.044L375.993 292.88L374.158 286.648L378.214 292.801C378.214 292.801 378.565 298.126 380.321 298.817C380.456 298.878 380.604 298.905 380.752 298.896C382.882 298.828 383.301 298.228 383.301 298.228L383.743 297.151C383.743 297.151 385.851 298.556 386.157 296.936Z" fill="#FFBF9D"/>
<path d="M363.121 280.826C363.762 280.733 364.416 280.759 365.047 280.905C366.603 281.116 368.126 281.523 369.579 282.118C371.061 282.688 372.374 283.623 373.398 284.837C373.849 285.324 374.142 285.936 374.236 286.593C374.134 286.593 373.851 285.947 373.103 285.109C372.045 284.036 370.77 283.202 369.364 282.662C366.033 281.336 363.087 281.041 363.121 280.826Z" fill="#335F79"/>
<path d="M367.087 287.307C367.245 287.307 367.359 287.953 367.438 288.723C367.517 289.494 367.54 290.151 367.381 290.196C367.223 290.241 366.939 289.607 366.849 288.791C366.758 287.975 366.917 287.295 367.087 287.307Z" fill="#335F79"/>
<path d="M363.122 287.511C363.246 287.398 364.368 288.644 366.158 289.505C367.948 290.366 369.557 290.638 369.557 290.774C368.28 290.957 366.98 290.693 365.875 290.026C364.69 289.537 363.716 288.647 363.122 287.511Z" fill="#335F79"/>
<path d="M350.272 288.064C350.841 288.113 351.387 288.308 351.858 288.631C353.065 289.294 354.101 290.229 354.883 291.362C355.126 291.725 355.346 292.103 355.541 292.495L355.235 292.336C356.71 292.04 358.238 292.17 359.642 292.71C358.201 292.688 356.759 292.753 355.325 292.903H355.121L355.019 292.721C354.833 292.358 354.625 292.006 354.396 291.668C353.262 290.216 351.863 288.993 350.272 288.064Z" fill="#335F79"/>
<path d="M378.452 282.943C379.053 283.424 379.57 284.003 379.981 284.654C381.065 286.162 381.941 287.808 382.587 289.549C383.239 291.29 383.646 293.113 383.8 294.965C383.93 295.715 383.93 296.481 383.8 297.231C383.451 294.684 382.875 292.174 382.077 289.73C381.073 287.365 379.859 285.094 378.452 282.943Z" fill="#335F79"/>
<path d="M278.085 460.731L276.952 491.392C276.952 491.392 307.692 502.903 308.032 508.569L248.502 508.444L248.377 460.584L278.085 460.731Z" fill="#455A64"/>
<path d="M258.575 488.774C258.003 488.946 257.515 489.323 257.205 489.834C256.896 490.345 256.786 490.952 256.898 491.539C257.046 492.12 257.413 492.621 257.922 492.938C258.431 493.254 259.043 493.362 259.629 493.238C260.236 493.054 260.754 492.65 261.08 492.106C261.407 491.561 261.52 490.915 261.397 490.292C261.174 489.706 260.735 489.229 260.169 488.959C259.603 488.688 258.956 488.647 258.36 488.842" fill="#E0E0E0"/>
<path d="M248.502 508.432L248.683 503.605L305.687 505.532C305.687 505.532 308.327 506.665 308.032 508.557L248.502 508.432Z" fill="#263238"/>
<path d="M277.894 491.085C277.894 491.379 276.421 491.504 274.993 492.433C273.566 493.362 272.795 494.586 272.523 494.472C272.251 494.359 272.693 492.682 274.449 491.583C276.206 490.484 277.95 490.824 277.894 491.085Z" fill="white"/>
<path d="M284.126 493.679C284.194 493.962 282.936 494.45 281.939 495.685C280.942 496.92 280.67 498.211 280.375 498.2C280.081 498.189 279.899 496.534 281.168 495.039C282.437 493.543 284.126 493.407 284.126 493.679Z" fill="white"/>
<path d="M287.66 501.158C287.388 501.226 286.991 499.775 287.739 498.178C288.487 496.58 289.846 495.912 290.005 496.206C290.164 496.501 289.28 497.339 288.691 498.608C288.101 499.877 287.943 501.135 287.66 501.158Z" fill="white"/>
<path d="M277.384 484.071C277.259 484.332 275.922 483.935 274.279 484.071C272.636 484.207 271.356 484.694 271.209 484.445C271.061 484.196 272.285 483.165 274.223 483.063C276.16 482.961 277.52 483.845 277.384 484.071Z" fill="white"/>
<path d="M230.374 457.581L211.112 481.375C211.112 481.375 228.81 509.021 225.717 513.78L178.129 477.976L206.693 439.6L230.374 457.581Z" fill="#455A64"/>
<path d="M197.912 468.254C197.348 468.053 196.73 468.065 196.175 468.288C195.619 468.512 195.165 468.931 194.898 469.466C194.67 470.016 194.661 470.631 194.872 471.187C195.082 471.743 195.497 472.197 196.031 472.458C196.628 472.673 197.283 472.66 197.87 472.422C198.458 472.183 198.937 471.736 199.215 471.166C199.391 470.564 199.326 469.916 199.034 469.361C198.743 468.805 198.247 468.384 197.651 468.186" fill="#E0E0E0"/>
<path d="M178.129 477.975L181.154 474.225L225.626 509.938C225.626 509.938 227.054 512.454 225.694 513.768L178.129 477.975Z" fill="#263238"/>
<path d="M212.017 481.727C211.836 481.953 210.59 481.183 208.89 481.069C207.191 480.956 205.842 481.477 205.695 481.217C205.548 480.956 206.907 479.891 208.969 480.084C211.032 480.276 212.233 481.545 212.017 481.727Z" fill="white"/>
<path d="M215.452 487.538C215.339 487.81 214.036 487.447 212.506 487.832C210.976 488.218 209.968 489.09 209.741 488.909C209.515 488.728 210.365 487.3 212.268 486.847C214.172 486.393 215.622 487.311 215.452 487.538Z" fill="white"/>
<path d="M213.796 495.639C213.547 495.537 214.091 494.132 215.654 493.305C217.218 492.478 218.668 492.795 218.623 493.067C218.578 493.339 217.388 493.498 216.13 494.2C214.873 494.903 214.045 495.798 213.796 495.639Z" fill="white"/>
<path d="M215.814 475.8C215.565 475.936 214.738 474.815 213.355 473.919C211.973 473.024 210.636 472.662 210.67 472.379C210.704 472.095 212.302 471.993 213.922 473.081C215.542 474.169 216.063 475.71 215.814 475.8Z" fill="white"/>
<path d="M275.016 246.006C280.785 244.469 286.676 243.434 292.624 242.913C298.601 242.402 304.613 243.383 310.118 245.768C310.934 246.142 316.395 249.292 316.225 250.175C316.112 250.81 310.956 248.737 310.379 249.042C304.804 251.705 298.346 252.034 292.25 251.037C286.338 250.014 280.558 248.338 275.016 246.04" fill="#263238"/>
<path d="M244.208 243.74L297.756 247.264C312.712 248 324.745 257.303 323.601 272.191L323.419 273.562C322.516 280.226 319.137 286.305 313.956 290.592C308.775 294.879 302.171 297.059 295.456 296.699C282.494 295.985 268.183 295.045 261.328 294.025C247.109 291.963 246.837 277.426 246.837 277.426C246.837 277.426 245.568 277.267 241.375 276.882L227.779 267.081L244.208 243.74Z" fill="#FFBF9D"/>
<path d="M246.836 277.426C247.739 270.853 250.511 264.678 254.824 259.637C254.824 259.637 243.494 262.651 242.871 277.018L246.836 277.426Z" fill="#335F79"/>
<path d="M285.371 283.817C285.666 284.044 284.714 285.732 284.998 287.919C285.281 290.105 286.584 291.567 286.346 291.839C286.108 292.111 285.734 291.782 285.133 291.148C284.358 290.282 283.867 289.198 283.729 288.043C283.578 286.902 283.796 285.743 284.352 284.735C284.782 283.998 285.235 283.715 285.371 283.817Z" fill="#263238"/>
<path d="M286.958 264.259C287.218 264.52 286.051 266.061 286.017 268.27C285.983 270.48 287.071 272.111 286.788 272.338C286.674 272.463 286.199 272.191 285.655 271.477C285.011 270.512 284.679 269.373 284.703 268.214C284.731 267.058 285.128 265.943 285.836 265.03C286.357 264.361 286.901 264.135 286.958 264.259Z" fill="#263238"/>
<path d="M274.11 276.916C274.31 278.117 274.363 279.339 274.268 280.553C274.268 281.12 274.268 281.686 274.653 281.811C275.225 281.939 275.823 281.888 276.364 281.663L280.84 280.587C287.208 279.114 292.408 278.128 292.465 278.389C292.522 278.65 287.412 280.043 281.044 281.516L276.512 282.525C275.78 282.793 274.977 282.793 274.246 282.525C274.059 282.417 273.9 282.268 273.78 282.09C273.66 281.911 273.583 281.707 273.554 281.494C273.514 281.174 273.514 280.85 273.554 280.53C273.584 279.307 273.77 278.092 274.11 276.916Z" fill="#263238"/>
<path d="M298.718 272.985C298.208 272.611 299.081 270.572 299.488 267.988C299.896 265.405 299.783 263.207 300.395 263.026C300.678 262.946 301.131 263.456 301.46 264.419C301.838 265.699 301.919 267.047 301.697 268.363C301.476 269.678 300.956 270.926 300.18 272.011C299.556 272.826 298.967 273.155 298.718 272.985Z" fill="#263238"/>
<path d="M295.966 293.833C295.524 293.312 296.261 291.567 296.544 289.449C296.827 287.33 296.68 285.449 297.258 285.098C297.53 284.939 297.994 285.29 298.391 286.14C298.845 287.303 298.978 288.567 298.776 289.8C298.626 291.042 298.136 292.218 297.36 293.199C296.759 293.879 296.215 294.06 295.966 293.833Z" fill="#263238"/>
<path d="M287.06 247.004C287.196 246.777 291.275 237.611 281.508 236.602C271.741 235.594 272.738 245.667 273.01 245.667C273.282 245.667 287.06 247.004 287.06 247.004Z" fill="#FFBF9D"/>
<path d="M277.021 243.061C277.021 243.061 276.919 242.879 276.817 242.573C276.691 242.152 276.732 241.697 276.93 241.304C277.417 240.307 279.14 239.605 280.907 239.741C281.748 239.802 282.565 240.049 283.298 240.466C283.585 240.596 283.837 240.793 284.034 241.039C284.23 241.285 284.367 241.574 284.431 241.882C284.461 242.085 284.42 242.292 284.315 242.467C284.209 242.643 284.046 242.777 283.853 242.845C283.57 242.947 283.377 242.845 283.354 242.913C283.332 242.981 283.502 243.14 283.91 243.106C284.159 243.073 284.39 242.957 284.567 242.777C284.796 242.528 284.918 242.198 284.907 241.86C284.87 241.452 284.729 241.06 284.497 240.722C284.265 240.385 283.949 240.113 283.581 239.933C282.781 239.424 281.865 239.124 280.918 239.061C278.936 238.914 276.987 239.73 276.443 241.101C276.338 241.355 276.292 241.629 276.308 241.904C276.323 242.179 276.401 242.446 276.534 242.687C276.794 243.015 277.009 243.095 277.021 243.061Z" fill="#335F79"/>
<path d="M312.248 291.941C312.973 293.607 318.548 289.335 320.689 285.619C323.907 279.954 326.354 271.161 325.369 265.598C324.134 258.89 321.403 253.134 315.772 249.327C310.013 245.596 303.365 243.465 296.51 243.152C294.438 242.875 292.329 243.157 290.403 243.968C288.137 245.101 286.505 247.628 283.525 247.231C282.988 247.142 282.439 247.161 281.91 247.288C281.38 247.414 280.882 247.645 280.443 247.968C278.37 249.577 279.956 251.933 281.656 253.112C285.281 255.616 289.836 256.295 294.21 256.896C297.294 257.492 300.456 257.58 303.569 257.157C305.246 256.828 306.855 256.205 308.543 256.024C309.381 255.851 310.247 255.863 311.081 256.059C311.914 256.254 312.695 256.629 313.37 257.157C313.636 257.426 313.878 257.718 314.095 258.029C315.155 259.505 315.805 261.237 315.976 263.047C316.147 264.857 315.834 266.679 315.069 268.328C312.599 273.654 308.803 282.786 310.435 285.426C312.792 289.211 314.469 290.219 314.469 290.219L312.248 291.941Z" fill="#263238"/>
<path d="M287.229 242.233C287.046 241.076 286.54 239.994 285.771 239.11C285.001 238.226 283.999 237.577 282.878 237.236C282.878 237.157 283.32 237.112 284.011 237.293C284.89 237.537 285.678 238.033 286.277 238.721C286.879 239.4 287.272 240.238 287.41 241.134C287.41 241.814 287.308 242.233 287.229 242.233Z" fill="white"/>
<path d="M269.316 271.841C269.097 271.327 268.696 270.912 268.19 270.676C267.684 270.44 267.108 270.399 266.574 270.561L266.857 270.436C266.359 270.368 265.852 270.474 265.423 270.736C264.994 270.999 264.668 271.401 264.5 271.875C264.355 272.357 264.355 272.87 264.5 273.352C264.646 273.833 264.929 274.262 265.316 274.583C265.748 274.932 266.278 275.139 266.832 275.173C267.386 275.208 267.938 275.069 268.409 274.776C268.868 274.459 269.207 273.998 269.371 273.465C269.536 272.933 269.516 272.361 269.316 271.841Z" fill="#335F79"/>
<path d="M268.772 274.366C269.1 273.98 269.28 273.49 269.282 272.984C269.326 272.455 269.22 271.925 268.976 271.454C268.532 270.995 267.927 270.727 267.288 270.706C266.65 270.608 265.997 270.745 265.453 271.092C265.233 271.229 265.044 271.411 264.897 271.626C264.751 271.84 264.651 272.083 264.603 272.338C264.559 272.837 264.666 273.338 264.909 273.777C264.909 273.777 264.727 273.777 264.535 273.505C264.282 273.153 264.158 272.725 264.184 272.293C264.214 271.966 264.315 271.65 264.479 271.367C264.643 271.083 264.867 270.838 265.135 270.65C265.793 270.184 266.606 269.993 267.401 270.117C267.8 270.133 268.19 270.235 268.546 270.415C268.901 270.594 269.214 270.848 269.464 271.16C269.762 271.73 269.858 272.385 269.736 273.018C269.699 273.44 269.523 273.838 269.237 274.151C268.931 274.377 268.772 274.4 268.772 274.366Z" fill="#263238"/>
<g opacity="0.1">
<path d="M324.225 262.98C322.67 257.956 319.637 253.517 315.522 250.243C311.407 246.969 306.401 245.011 301.156 244.624L297.213 244.443C296.528 244.351 295.83 244.416 295.174 244.635C294.847 244.753 294.569 244.976 294.385 245.27C294.2 245.563 294.119 245.911 294.154 246.256C294.324 247.026 295.174 247.389 295.933 247.593C300.465 248.805 305.224 248.578 309.609 250.119C313.804 251.595 317.289 254.599 319.368 258.53C321.447 262.461 321.968 267.032 320.826 271.33C320.601 271.97 320.5 272.647 320.532 273.324C320.552 273.664 320.685 273.988 320.911 274.243C321.137 274.497 321.443 274.669 321.778 274.729C322.092 274.704 322.395 274.603 322.661 274.436C322.928 274.268 323.149 274.038 323.308 273.766C325.562 270.764 325.336 266.56 324.225 262.98Z" fill="white"/>
</g>
<path d="M284.567 272.566C284.567 272.634 284.057 272.645 283.343 272.317C282.402 271.872 281.653 271.101 281.237 270.147C280.82 269.193 280.763 268.12 281.077 267.127C281.326 266.38 281.677 265.994 281.734 266.062C281.791 266.13 281.609 266.527 281.485 267.195C281.308 268.099 281.41 269.035 281.779 269.88C282.147 270.724 282.764 271.435 283.547 271.92C284.147 272.339 284.635 272.475 284.567 272.566Z" fill="#335F79"/>
<path d="M281.746 291.182C281.26 290.246 281.096 289.175 281.281 288.137C281.465 287.098 281.987 286.149 282.765 285.438C282.913 285.551 282.131 286.65 281.859 288.247C281.587 289.845 281.916 291.137 281.746 291.182Z" fill="#335F79"/>
<path d="M178.129 328.764C178.809 328.515 226.85 330.861 242.441 332.232C258.031 333.603 285.055 340.956 286.392 359.311C287.525 374.041 287.264 476.695 287.264 476.695H245.341L244.344 368.206L179.228 351.777L178.129 328.764Z" fill="#263238"/>
<g opacity="0.3">
<path d="M212.562 335.676C212.562 335.676 235.903 339.891 254.542 345.182C273.181 350.473 281.406 361.793 284.126 368.534C286.845 375.276 288.137 385.349 282.415 394.798C278.801 400.781 260.683 421.833 260.683 421.833C260.683 421.833 256.944 361.419 256.763 360.501C256.581 359.583 212.562 335.676 212.562 335.676Z" fill="black"/>
</g>
<path d="M282.075 375.401C280.104 363.753 266.915 355.606 250.746 349.544C234.816 343.551 193.131 328.742 193.131 328.742L183.149 326.283H178.685L177.212 321.864C177.212 321.864 148.885 313.672 107.971 328.764L106.577 329.897C106.577 329.897 105.342 359.742 111.11 366.155C111.11 366.155 176.282 365.237 179.704 365.52C183.126 365.804 230.918 387.49 230.918 387.49L190.004 450.25L223.836 473.885C223.836 473.885 244.231 444.811 256.695 427.43C274.495 402.48 284.409 389.156 282.075 375.401Z" fill="#263238"/>
<path d="M282.074 375.401C282.074 375.401 282.176 376.103 282.346 377.474C282.52 379.504 282.444 381.547 282.12 383.559C281.55 386.816 280.548 389.982 279.14 392.974C277.25 397.037 275.073 400.96 272.625 404.713C267.209 413.244 259.867 423.125 251.72 434.772L224.028 474.021L223.892 474.214L223.7 474.078L189.856 450.465L189.652 450.318L189.788 450.102C202.308 430.897 216.12 409.675 230.679 387.332L230.793 387.751C221.728 383.642 212.43 379.487 202.897 375.287C198.138 373.214 193.345 371.129 188.485 369.101C186.049 368.115 183.613 367.073 181.12 366.212C180.82 366.102 180.513 366.011 180.202 365.94C179.9 365.836 179.581 365.79 179.262 365.804C178.616 365.804 177.947 365.804 177.29 365.804H173.29C151.933 365.917 131.107 366.212 111.12 366.472H110.984L110.894 366.382C109.895 365.102 109.156 363.639 108.718 362.076C108.238 360.566 107.859 359.025 107.585 357.464C107.042 354.394 106.664 351.296 106.452 348.185C106.055 342.01 106.021 335.936 106.214 329.954V329.829L106.316 329.75L107.71 328.617C119.268 324.347 131.309 321.516 143.559 320.187C149.293 319.572 155.065 319.383 160.827 319.621C166.365 319.722 171.877 320.39 177.279 321.615H177.403V321.739C177.913 323.292 178.389 324.742 178.865 326.17L178.638 326.011H183.171L193.164 328.481L233.682 343.154L250.338 349.193C255.003 350.914 259.546 352.95 263.934 355.289C271.866 359.504 277.146 364.455 279.491 368.614C280.019 369.511 280.488 370.442 280.896 371.401C281.172 372.105 281.41 372.824 281.61 373.554C281.882 374.743 281.995 375.344 281.995 375.344C281.995 375.344 281.837 374.743 281.553 373.565C281.417 372.976 281.1 372.285 280.805 371.446C280.658 371.016 280.398 370.596 280.182 370.132C279.951 369.629 279.682 369.144 279.378 368.682C277.01 364.569 271.73 359.685 263.81 355.504C259.419 353.192 254.877 351.182 250.213 349.488L233.648 343.551L193.108 328.957L183.125 326.498H178.593V326.34L176.996 321.932L177.166 322.091C171.857 320.85 166.436 320.152 160.986 320.006C155.249 319.776 149.504 319.973 143.797 320.595C131.592 321.929 119.597 324.761 108.084 329.025H108.163L106.769 330.158L106.871 329.954C106.679 335.903 106.724 341.987 107.12 348.083C107.313 351.174 107.669 354.252 108.186 357.306C108.472 358.838 108.85 360.351 109.319 361.838C109.737 363.325 110.437 364.717 111.381 365.94L111.165 365.838C131.164 365.577 151.955 365.271 173.347 365.158H177.347C178.015 365.158 178.684 365.158 179.352 365.158C179.699 365.155 180.043 365.209 180.372 365.316C180.711 365.389 181.045 365.488 181.369 365.611C183.896 366.483 186.321 367.515 188.768 368.512C193.629 370.54 198.433 372.625 203.18 374.709C212.683 378.879 221.985 383.034 231.087 387.173L231.393 387.309L231.212 387.592L190.286 450.34L190.218 449.978L224.028 473.636H223.7L251.471 434.432C259.64 422.807 267.016 412.904 272.455 404.463C274.895 400.76 277.072 396.891 278.97 392.883C280.385 389.914 281.402 386.771 281.995 383.536C282.328 381.534 282.427 379.499 282.29 377.474C282.131 376.114 282.074 375.401 282.074 375.401Z" fill="#455A64"/>
<path d="M251.221 379.843C250.152 380.094 249.07 380.287 247.98 380.421C242.79 381.367 237.837 383.331 233.409 386.2C231.71 387.333 230.713 388.058 230.645 387.99C231.386 387.168 232.236 386.451 233.171 385.86C235.348 384.311 237.708 383.037 240.196 382.064C242.682 381.088 245.277 380.415 247.924 380.058C249.01 379.855 250.117 379.782 251.221 379.843Z" fill="#455A64"/>
<path d="M243.867 276.713V280.305L235.109 281.121L234.61 279.285L236.967 273.812L243.867 276.713Z" fill="#0C314D"/>
<path d="M237.024 279.544L225.716 302.183L228.22 342.814L222.543 351.674L216.572 341.454L217.603 302.795L235.211 277.879L237.024 279.544Z" fill="#0C314D"/>
<path d="M240.446 241.769C240.446 241.769 224.493 235.719 209.072 234.71C193.651 233.702 174.582 244.047 165.473 248.092C156.363 252.137 121.533 286.615 113.998 298.082C109.681 304.676 103.925 319.61 103.925 319.61C102.951 324.822 106.588 329.898 106.588 329.898L176.712 330.419H189.867L195.43 318.533C195.43 318.533 206.047 317.774 209.084 311.962C212.12 306.149 223.247 297.549 223.247 297.549L235.914 276.588L244.253 278.355L248.876 242.744L240.446 241.769Z" fill="#E0E0E0"/>
<path d="M188.462 257.711C188.404 258.13 188.297 258.54 188.145 258.935C187.884 259.841 187.556 260.929 187.159 262.22C186.115 265.833 185.26 269.498 184.598 273.2C183.955 276.908 183.512 280.649 183.273 284.406C183.205 285.743 183.137 286.887 183.092 287.805C183.095 288.227 183.053 288.649 182.967 289.062C182.875 288.65 182.836 288.227 182.854 287.805C182.854 287 182.854 285.822 182.854 284.406C182.959 280.606 183.337 276.82 183.987 273.075C184.644 269.349 185.56 265.672 186.729 262.073C187.182 260.691 187.59 259.592 187.862 258.844C188.017 258.444 188.219 258.064 188.462 257.711Z" fill="#263238"/>
<path d="M219.202 397.426C219.202 397.426 224.006 403.024 225.49 405.052C226.827 406.865 228.153 413.504 228.663 419.985C228.699 420.371 228.638 420.759 228.487 421.115C228.336 421.471 228.098 421.784 227.796 422.026C227.494 422.267 227.136 422.43 226.755 422.499C226.375 422.568 225.983 422.542 225.615 422.422C225.294 422.299 225.011 422.094 224.794 421.828C224.577 421.561 224.435 421.242 224.38 420.903C223.349 416.212 223.077 414.218 223.077 414.218C222.941 411.952 222.703 412.269 222.635 413.799C222.567 415.329 223.768 423.792 223.768 423.792C223.768 423.792 227.008 435.338 226.136 436.63C225.95 436.887 225.708 437.099 225.429 437.249C225.15 437.4 224.84 437.485 224.523 437.499C224.206 437.514 223.89 437.456 223.598 437.331C223.307 437.206 223.047 437.017 222.839 436.777C222.397 436.177 218.748 426.58 218.748 426.58L217.785 421.322C217.785 421.322 219.666 437.933 218.613 439.236C218.456 439.474 218.246 439.671 217.999 439.812C217.752 439.952 217.475 440.033 217.191 440.046C216.907 440.059 216.624 440.005 216.365 439.888C216.106 439.771 215.878 439.594 215.701 439.372C214.964 438.715 214.216 431.373 214.216 431.373L212.505 421.572L212.811 440.256C212.811 440.256 212.619 442.023 211.225 442.091C209.831 442.159 208.959 440.108 208.959 440.108L206.953 420.847C206.953 420.847 207.599 431.554 206.874 432.12C205.911 432.868 205.039 432.619 204.721 431.792C204.076 430.126 203.135 420.461 203.135 420.461L202.251 402.129L201.605 396.067L217.649 390.322L219.202 397.426Z" fill="#FFBF9D"/>
<g opacity="0.3">
<path d="M184.44 282.932C179.455 298.364 175.942 314.233 173.948 330.327C174.144 336.154 174.811 341.955 175.942 347.674C177.789 356.84 192.824 396.588 192.824 396.588L203.124 397.483L194.445 326.871L203.124 293.866L184.44 282.932Z" fill="black"/>
</g>
<path d="M230.611 252.828C237.67 255.004 238.996 269.314 237.477 273.393C232.617 286.48 217.083 298.773 217.309 298.059L207.214 338.215L221.524 392.601L198.387 400.884C198.387 400.884 177.279 345.047 176.859 336.3C176.44 327.553 182.729 304.756 183.658 291.125C184.258 282.367 188.7 264.6 199.52 254.142" fill="#E0E0E0"/>
<path d="M199.531 254.062C199.531 254.062 199.361 254.266 199.01 254.652C198.659 255.037 198.115 255.592 197.446 256.362C195.541 258.635 193.842 261.073 192.37 263.648C190.068 267.757 188.207 272.098 186.818 276.599C185.924 279.406 185.208 282.267 184.677 285.165C184.405 286.705 184.156 288.292 184.008 289.935C183.861 291.578 183.759 293.334 183.521 295.022C182.705 301.956 181.187 309.468 179.657 317.558C178.91 321.592 178.116 325.784 177.55 330.124C177.227 332.314 177.124 334.531 177.244 336.741L177.482 338.395L177.867 340.049C178.105 341.182 178.422 342.315 178.74 343.449C179.975 347.913 181.448 352.445 182.989 357.045C184.529 361.645 186.161 366.37 187.849 371.163C191.248 380.737 194.852 390.64 198.659 400.769L198.285 400.599L209.037 396.747L221.422 392.317L221.24 392.668C216.153 373.327 211.337 354.994 206.952 338.282V338.146C210.703 323.326 214.113 309.82 217.093 298.002L217.512 298.115C217.522 298.085 217.524 298.052 217.518 298.021C217.512 297.99 217.498 297.96 217.478 297.936C217.458 297.911 217.432 297.892 217.402 297.879C217.372 297.867 217.34 297.863 217.309 297.866H217.377L217.535 297.775L217.852 297.56L218.487 297.084L219.711 296.098C220.504 295.419 221.274 294.739 221.977 294.048C223.472 292.677 224.877 291.272 226.192 289.867C228.679 287.235 230.952 284.408 232.99 281.414C234.794 278.824 236.26 276.014 237.352 273.052C237.913 270.463 237.982 267.792 237.556 265.178C236.922 260.43 235.358 256.895 233.658 254.98C232.796 254.026 231.726 253.282 230.531 252.805C230.531 252.805 230.848 252.918 231.449 253.167C231.824 253.324 232.175 253.534 232.491 253.79C232.959 254.111 233.382 254.492 233.749 254.923C235.505 256.782 237.148 260.339 237.794 265.121C237.977 266.382 238.075 267.654 238.089 268.928C238.129 270.339 237.976 271.75 237.635 273.12C236.555 276.119 235.088 278.964 233.273 281.584C231.238 284.604 228.964 287.457 226.475 290.116C225.149 291.532 223.744 292.949 222.249 294.331C221.501 295.033 220.73 295.725 219.983 296.404C219.586 296.733 219.178 297.073 218.759 297.401L218.113 297.889L217.773 298.115L217.592 298.229H217.479H217.377C217.337 298.233 217.296 298.228 217.259 298.214C217.221 298.2 217.187 298.177 217.161 298.147C217.134 298.117 217.115 298.081 217.105 298.042C217.095 298.003 217.095 297.962 217.105 297.923L217.535 298.036L207.485 338.203V338.067L221.818 392.453L221.886 392.713L221.637 392.804L209.253 397.234L198.489 401.087L198.217 401.189L198.115 400.917C194.308 390.776 190.705 380.862 187.317 371.288C185.64 366.495 183.997 361.781 182.467 357.158C180.938 352.536 179.476 347.981 178.23 343.494C177.912 342.361 177.607 341.228 177.369 340.095C177.233 339.528 177.108 338.962 176.983 338.418C176.859 337.874 176.813 337.285 176.734 336.696C176.615 334.454 176.725 332.207 177.063 329.988C177.641 325.614 178.434 321.433 179.204 317.388C180.756 309.298 182.297 301.809 183.136 294.886C183.374 293.164 183.464 291.487 183.634 289.821C183.804 288.156 184.054 286.558 184.337 285.017C184.882 282.111 185.612 279.242 186.524 276.429C187.935 271.915 189.835 267.568 192.189 263.467C193.677 260.885 195.411 258.452 197.367 256.204C198.749 254.765 199.531 254.062 199.531 254.062Z" fill="#263238"/>
<path d="M237.047 262.119C236.932 261.118 236.932 260.107 237.047 259.106C237.157 256.685 237.392 254.273 237.75 251.877C238.106 249.481 238.59 247.105 239.2 244.761C239.396 243.771 239.712 242.808 240.14 241.895C240.044 242.893 239.865 243.882 239.608 244.852C239.234 246.665 238.758 249.18 238.339 251.967C237.92 254.755 237.648 257.293 237.466 259.14C237.417 260.143 237.277 261.141 237.047 262.119Z" fill="#263238"/>
<g opacity="0.3">
<path d="M239.607 242.731C239.369 242.629 239.12 242.867 238.961 243.083C237.481 244.801 236.298 246.754 235.46 248.861C234.203 252.623 235.54 256.792 236.684 260.645C237.75 264.321 238.134 268.161 237.817 271.975L237.534 273.301C238.752 270.914 239.097 268.177 238.508 265.562C237.913 262.974 237.452 260.357 237.126 257.722C236.865 252.861 238.825 248.193 239.8 243.434C239.856 243.207 239.868 242.833 239.607 242.731Z" fill="black"/>
</g>
<path d="M160.555 349.193H153.337V400.838H160.555V349.193Z" fill="#E0E0E0"/>
<path d="M50.1506 315.451C50.7953 316.978 51.9756 318.217 53.4696 318.935C54.9636 319.653 56.6683 319.8 58.2633 319.349C75.1783 314.69 93.0136 314.507 110.021 318.816C133.894 324.742 142.607 337.602 145.848 345.692C146.643 347.629 147.998 349.284 149.741 350.445C151.483 351.606 153.533 352.219 155.626 352.207H156.601C157.607 352.2 158.6 351.969 159.507 351.532C160.414 351.094 161.212 350.46 161.844 349.676C162.477 348.893 162.927 347.978 163.162 346.999C163.398 346.02 163.413 345.001 163.206 344.015C160.736 332.798 145.814 313.31 119.142 306.104C87.0427 297.424 64.7556 303.203 54.3882 306.432C53.4972 306.717 52.6745 307.182 51.9715 307.799C51.2684 308.416 50.7003 309.171 50.3025 310.017C49.9048 310.864 49.686 311.784 49.6599 312.718C49.6337 313.653 49.8008 314.584 50.1506 315.451Z" fill="#455A64"/>
<path d="M50.1505 315.451C50.1505 315.451 50.0485 315.236 49.8899 314.794C49.6167 313.925 49.521 313.009 49.6086 312.102C49.6962 311.195 49.9653 310.315 50.3998 309.514C51.1517 308.145 52.352 307.077 53.7989 306.489C63.0436 303.431 72.677 301.707 82.4084 301.367C89.1189 301.128 95.8374 301.481 102.486 302.421C104.276 302.704 106.1 302.965 107.936 303.282L113.522 304.415L119.187 305.82C121.068 306.432 123.028 306.953 124.932 307.645C126.835 308.336 128.784 309.061 130.665 309.979C131.605 310.432 132.58 310.817 133.509 311.327L136.319 312.834C140.108 314.988 143.692 317.483 147.026 320.289C150.475 323.206 153.601 326.484 156.351 330.068L157.394 331.439L158.357 332.889C158.663 333.365 159.002 333.841 159.297 334.339L160.158 335.857C161.332 337.897 162.278 340.059 162.979 342.305C163.127 342.882 163.297 343.438 163.444 344.027C163.559 344.624 163.601 345.233 163.569 345.84C163.46 347.662 162.648 349.371 161.304 350.605C159.959 351.84 158.187 352.504 156.362 352.457C154.026 352.586 151.706 351.988 149.723 350.746C147.774 349.51 146.276 347.678 145.451 345.522C144.633 343.508 143.624 341.577 142.437 339.755C141.882 338.826 141.214 337.988 140.59 337.126C139.967 336.265 139.276 335.45 138.54 334.69C135.736 331.644 132.525 328.998 128.999 326.827C125.64 324.769 122.093 323.036 118.405 321.649C114.91 320.369 111.333 319.325 107.698 318.522C101.188 317.022 94.547 316.161 87.8697 315.95C78.1916 315.622 68.5178 316.717 59.1583 319.202C58.3803 319.459 57.5735 319.619 56.7562 319.678C55.8288 319.718 54.903 319.568 54.0358 319.236C53.1687 318.905 52.3785 318.4 51.7141 317.751C51.0501 317.117 50.5354 316.343 50.2072 315.485C50.6041 316.311 51.1451 317.059 51.8048 317.695C52.6061 318.435 53.5738 318.971 54.6261 319.258C55.3069 319.431 56.0092 319.503 56.7109 319.474C57.5125 319.402 58.3032 319.238 59.0676 318.986C68.4544 316.411 78.1755 315.266 87.9037 315.587C94.6211 315.752 101.305 316.587 107.857 318.08C111.513 318.88 115.113 319.921 118.632 321.196C122.36 322.586 125.945 324.332 129.339 326.408C132.911 328.593 136.164 331.262 139.004 334.339C139.752 335.098 140.386 335.971 141.089 336.798C141.791 337.625 142.392 338.531 142.958 339.472C144.173 341.318 145.201 343.28 146.029 345.33C146.815 347.373 148.237 349.109 150.085 350.281C151.976 351.46 154.184 352.026 156.408 351.901C158.084 351.948 159.712 351.34 160.948 350.207C162.183 349.073 162.928 347.502 163.025 345.828C163.055 345.271 163.017 344.711 162.911 344.163C162.776 343.608 162.606 343.03 162.458 342.497C161.769 340.292 160.842 338.168 159.694 336.163L158.866 334.645C158.572 334.158 158.243 333.682 157.926 333.206L156.94 331.812L155.909 330.453C153.184 326.905 150.088 323.657 146.675 320.765C143.369 317.981 139.815 315.504 136.058 313.366L133.282 311.86C132.364 311.35 131.39 310.976 130.461 310.522C128.591 309.605 126.665 308.925 124.796 308.2C122.926 307.475 120.966 306.976 119.13 306.376L113.465 304.959L107.902 303.826C106.066 303.498 104.254 303.237 102.475 302.942C95.8538 301.988 89.1627 301.609 82.4764 301.809C72.7837 302.111 63.1807 303.766 53.9462 306.727C52.5347 307.276 51.3601 308.302 50.6264 309.627C50.0768 310.588 49.7768 311.671 49.754 312.777C49.7268 313.685 49.8611 314.59 50.1505 315.451Z" fill="#263238"/>
<path d="M61.9916 312.721C61.9916 313.803 61.6707 314.861 61.0693 315.761C60.468 316.661 59.6133 317.363 58.6133 317.777C57.6133 318.191 56.5129 318.299 55.4514 318.088C54.3898 317.877 53.4146 317.356 52.6493 316.59C51.8839 315.825 51.3627 314.85 51.1515 313.788C50.9404 312.727 51.0488 311.626 51.463 310.626C51.8772 309.626 52.5786 308.772 53.4786 308.17C54.3786 307.569 55.4366 307.248 56.519 307.248C57.2381 307.247 57.9504 307.387 58.6151 307.662C59.2797 307.936 59.8836 308.339 60.3921 308.848C60.9005 309.356 61.3036 309.96 61.5781 310.625C61.8526 311.289 61.9931 312.002 61.9916 312.721Z" fill="white"/>
<path d="M386.608 276.123H412.419L410.402 290.32C410.402 290.32 408.725 297.3 404.737 297.3H393.554C392.179 296.457 390.988 295.345 390.054 294.031C389.119 292.716 388.46 291.227 388.115 289.652L386.608 276.123Z" fill="#455A64"/>
<path d="M386.608 276.122C386.645 276.271 386.672 276.423 386.687 276.576C386.687 276.893 386.789 277.312 386.869 277.833C387.016 278.966 387.231 280.564 387.503 282.558C387.775 284.552 388.092 287.022 388.455 289.798C388.807 291.316 389.46 292.747 390.377 294.007C391.294 295.266 392.455 296.328 393.791 297.129H393.689H402.629C403.422 297.129 404.227 297.129 405.009 297.129C405.782 297.085 406.515 296.773 407.082 296.245C408.267 295.108 409.157 293.701 409.677 292.144C409.905 291.546 410.102 290.937 410.266 290.319C410.957 285.3 411.614 280.53 412.215 276.122L412.419 276.36L393.893 276.258L388.557 276.202H387.118H386.608C386.762 276.183 386.918 276.183 387.072 276.202H388.466L393.757 276.145L412.419 276.043H412.645V276.27C412.045 280.677 411.399 285.459 410.731 290.467C410.57 291.106 410.369 291.734 410.13 292.348C409.577 293.974 408.641 295.443 407.399 296.63C406.76 297.219 405.934 297.564 405.065 297.605C404.249 297.605 403.456 297.605 402.663 297.605H393.723H393.667C392.287 296.77 391.092 295.664 390.153 294.353C389.214 293.042 388.552 291.554 388.206 289.979C387.832 287.135 387.582 284.654 387.344 282.615C387.106 280.575 386.948 279.023 386.835 277.89L386.699 276.655C386.647 276.482 386.617 276.303 386.608 276.122Z" fill="#263238"/>
<path d="M410.402 283.442L410.787 283.351C410.549 283.351 410.855 283.351 410.901 283.351C411.18 283.334 411.46 283.334 411.739 283.351C411.467 283.351 411.739 283.351 411.841 283.351L412.283 283.465L412.645 283.578C412.815 283.635 412.645 283.578 412.577 283.578L412.815 283.691C413.061 283.825 413.3 283.973 413.529 284.133C413.677 284.235 413.529 284.133 413.473 284.133L413.62 284.258C413.731 284.358 413.837 284.464 413.937 284.575C414.016 284.666 414.175 284.881 414.028 284.666C414.118 284.79 414.198 284.915 414.277 285.04C414.356 285.164 414.402 285.278 414.458 285.391C414.515 285.504 414.458 285.391 414.458 285.323C414.495 285.403 414.526 285.487 414.549 285.572C414.601 285.716 414.643 285.864 414.674 286.014C414.674 286.071 414.753 286.445 414.73 286.263C414.708 286.082 414.73 286.456 414.73 286.513C414.742 286.667 414.742 286.823 414.73 286.977C414.73 287.068 414.73 287.158 414.73 287.249C414.73 287.34 414.73 287.487 414.73 287.249C414.716 287.333 414.697 287.416 414.674 287.498C414.652 287.63 414.618 287.759 414.572 287.884C414.572 287.986 414.402 288.337 414.572 288.065C414.45 288.327 414.31 288.581 414.152 288.824L414.039 288.983C414.039 288.983 414.198 288.801 414.039 288.926C413.88 289.051 413.801 289.175 413.677 289.3C413.552 289.425 413.348 289.561 413.484 289.47C413.62 289.379 413.314 289.572 413.269 289.594L412.929 289.787L412.759 289.878C412.849 289.878 412.951 289.776 412.759 289.878C412.668 289.878 412.17 290.036 411.875 290.116C411.58 290.195 411.954 290.116 411.977 290.116H411.716H410.833H410.583L410.085 289.957C410.3 290.048 409.915 289.866 409.915 289.866C409.738 289.763 409.544 289.695 409.341 289.667C409.139 289.639 408.933 289.651 408.735 289.703C408.537 289.754 408.351 289.844 408.188 289.968C408.025 290.091 407.888 290.245 407.785 290.422C407.681 290.598 407.614 290.793 407.586 290.995C407.557 291.198 407.57 291.404 407.621 291.602C407.673 291.799 407.763 291.985 407.886 292.148C408.009 292.311 408.164 292.448 408.34 292.552C409.828 293.326 411.554 293.511 413.173 293.07C414.792 292.629 416.185 291.595 417.076 290.172C417.915 288.683 418.173 286.935 417.801 285.266C417.612 284.455 417.264 283.689 416.778 283.012C416.292 282.335 415.677 281.761 414.968 281.323C414.187 280.832 413.313 280.507 412.401 280.369C411.488 280.231 410.557 280.282 409.666 280.519C409.267 280.628 408.929 280.892 408.725 281.251C408.521 281.61 408.468 282.035 408.578 282.434C408.688 282.832 408.951 283.17 409.31 283.374C409.669 283.578 410.094 283.631 410.493 283.521L410.402 283.442Z" fill="#455A64"/>
<path d="M410.401 283.443C410.239 283.52 410.059 283.552 409.88 283.533C409.613 283.52 409.352 283.441 409.123 283.302C408.894 283.164 408.702 282.971 408.566 282.74C408.454 282.553 408.381 282.346 408.35 282.13C408.319 281.914 408.331 281.695 408.386 281.484C408.441 281.273 408.537 281.075 408.669 280.902C408.801 280.728 408.966 280.583 409.155 280.474C409.631 280.257 410.141 280.127 410.662 280.089C411.238 280.016 411.82 280.016 412.396 280.089C413.717 280.287 414.95 280.871 415.942 281.766C417.098 282.793 417.84 284.207 418.027 285.743C418.257 287.44 417.853 289.162 416.894 290.581C416.366 291.321 415.691 291.945 414.911 292.413C414.131 292.881 413.263 293.183 412.362 293.3C411.555 293.414 410.735 293.391 409.937 293.232C409.552 293.143 409.174 293.029 408.804 292.892L408.26 292.643C408.06 292.554 407.883 292.422 407.739 292.258C407.471 291.926 407.325 291.512 407.325 291.085C407.325 290.659 407.471 290.245 407.739 289.912C408.019 289.603 408.396 289.399 408.808 289.333C409.22 289.267 409.642 289.344 410.005 289.55L409.71 289.731C409.712 289.681 409.731 289.634 409.764 289.597C409.797 289.56 409.842 289.535 409.891 289.527C410.005 289.527 410.016 289.527 410.005 289.527H410.084C410.084 289.403 410.243 289.844 409.994 289.89H409.869H409.778V289.833C409.665 289.38 410.095 289.505 409.971 289.493H410.039L410.197 289.55C410.409 289.617 410.625 289.67 410.843 289.708C410.843 289.708 410.843 289.709 410.957 289.765C411.07 289.822 411.025 289.765 411.013 289.958C411.002 290.15 410.855 290.116 410.843 290.116H410.741H410.651H410.571C410.571 290.116 410.458 290.06 410.515 289.867C410.571 289.675 410.662 289.776 410.685 289.765H411.195C411.41 289.776 411.625 289.776 411.84 289.765V290.15H411.772H411.67C411.619 290.15 411.57 290.13 411.534 290.094C411.511 290.063 411.499 290.025 411.499 289.986C411.499 289.947 411.511 289.91 411.534 289.878C411.534 289.799 411.534 289.822 411.534 289.81L411.625 289.754H411.806L412.135 289.663L412.475 289.573H412.622C412.543 289.493 412.622 289.958 412.735 289.901H412.815H412.747L412.566 289.561L413.007 289.323L413.211 289.199C413.252 289.187 413.295 289.187 413.336 289.199C413.373 289.211 413.408 289.23 413.438 289.255C413.468 289.292 413.485 289.338 413.485 289.386C413.485 289.433 413.468 289.479 413.438 289.516H413.37C413.333 289.53 413.293 289.53 413.257 289.516C413.225 289.51 413.195 289.497 413.169 289.477C413.144 289.457 413.123 289.432 413.109 289.403C413.041 289.301 413.177 289.153 413.109 289.187C413.24 289.094 413.362 288.988 413.472 288.87L413.631 288.7C413.631 288.7 413.823 288.7 413.869 288.825C413.914 288.949 413.869 288.915 413.869 288.938L413.801 289.017L413.506 288.802C413.71 288.519 413.857 288.213 414.027 287.93L414.344 288.077V288.134C414.344 288.134 414.344 288.134 414.208 288.134C414.186 288.132 414.164 288.126 414.144 288.116C414.124 288.106 414.106 288.093 414.091 288.076C414.077 288.059 414.065 288.039 414.058 288.018C414.051 287.997 414.048 287.975 414.05 287.952V287.828C414.081 287.758 414.108 287.686 414.129 287.612C414.129 287.465 414.208 287.318 414.242 287.17V287.057C414.242 287.057 414.242 287.057 414.31 286.955C414.335 286.941 414.362 286.934 414.39 286.934C414.418 286.934 414.445 286.941 414.469 286.955H414.537C414.549 287 414.549 287.047 414.537 287.091V287.204C414.65 287.329 414.061 287.272 414.22 287.204V287.102C414.214 287.069 414.214 287.034 414.22 287.001C414.22 286.853 414.22 286.706 414.22 286.57C414.231 286.43 414.231 286.29 414.22 286.151V286.026C414.223 285.999 414.231 285.973 414.245 285.95C414.259 285.926 414.277 285.906 414.299 285.89C414.322 285.874 414.35 285.865 414.378 285.865C414.407 285.865 414.435 285.874 414.458 285.89C414.471 285.895 414.483 285.902 414.493 285.912C414.502 285.922 414.51 285.934 414.514 285.947C414.514 286.003 414.514 286.003 414.514 286.003V286.071C414.519 286.094 414.519 286.117 414.514 286.139C414.514 286.139 414.514 286.139 414.424 286.196C414.389 286.205 414.352 286.203 414.319 286.188C414.286 286.174 414.259 286.149 414.242 286.117L414.186 285.867C414.13 285.61 414.058 285.357 413.97 285.108L414.242 285.006V285.063C414.246 285.08 414.245 285.098 414.241 285.115C414.237 285.132 414.229 285.148 414.219 285.162C414.208 285.176 414.194 285.187 414.179 285.196C414.164 285.204 414.147 285.209 414.129 285.21C414.016 285.21 414.016 285.21 414.004 285.21C414.004 285.21 414.004 285.12 413.925 285.074L413.812 284.836L413.54 284.417L413.767 284.27V284.327C413.777 284.345 413.783 284.367 413.783 284.389C413.783 284.411 413.777 284.432 413.767 284.451C413.754 284.47 413.737 284.485 413.718 284.496C413.698 284.506 413.676 284.512 413.653 284.512C413.631 284.512 413.609 284.506 413.589 284.496C413.569 284.485 413.552 284.47 413.54 284.451L413.461 284.349C413.41 284.283 413.353 284.223 413.291 284.168L412.962 283.851L413.121 283.669H413.189C412.917 284.043 413.075 283.76 413.019 283.839L412.871 283.749L412.588 283.567C412.423 283.454 412.249 283.355 412.067 283.273L412.158 283.08H412.248H412.316C412.316 283.08 412.373 283.216 412.316 283.239H412.26H412.667L412.486 283.171L412.146 283.069L411.829 282.99H411.682C411.75 282.99 411.546 283.069 411.682 282.831H411.806V282.99H411.059H410.775C410.775 282.99 410.775 282.99 410.775 282.922H410.945C410.945 282.922 410.945 282.922 410.945 282.978H410.855C410.713 283.011 410.569 283.03 410.424 283.035C410.556 282.969 410.698 282.923 410.843 282.899H410.9H410.775H411.806V283.058H411.682C411.818 282.808 411.602 282.922 411.682 282.899H411.863L412.203 282.967L412.554 283.069L412.735 283.125C412.667 283.397 412.667 283.295 412.656 283.307H412.543L412.633 283.114C412.822 283.199 413.003 283.298 413.177 283.409L413.472 283.579L413.631 283.669L413.574 283.76L413.495 283.692L413.653 283.511C413.776 283.61 413.893 283.716 414.004 283.828C414.004 283.896 414.129 283.941 414.197 284.021L414.276 284.123C414.276 284.123 414.22 284.123 414.197 284.123V284.066L414.424 283.919C414.514 284.055 414.616 284.191 414.707 284.349L414.832 284.587C414.832 284.587 414.911 284.655 414.832 284.712L414.752 284.78C414.723 284.77 414.691 284.77 414.662 284.78H414.605V284.7L414.877 284.598C414.979 284.86 415.062 285.129 415.126 285.403V285.505V285.584C415.126 285.584 415.126 285.584 415.036 285.584C414.945 285.584 415.036 285.584 414.979 285.584C414.966 285.579 414.953 285.576 414.939 285.576C414.926 285.576 414.912 285.579 414.9 285.584H414.832H414.922H414.979C414.979 285.584 415.036 285.584 415.047 285.584H414.934V285.664C414.934 285.799 414.934 285.969 414.934 286.117C414.951 286.267 414.951 286.419 414.934 286.57C414.94 286.611 414.94 286.653 414.934 286.695C414.934 286.695 414.877 286.695 414.798 286.695H414.605V286.593C414.605 286.593 414.718 286.593 414.696 286.593C414.945 286.593 414.843 286.593 414.866 286.593V286.706C414.866 286.853 414.786 287.023 414.741 287.182C414.723 287.264 414.697 287.344 414.662 287.42V287.522C414.22 287.34 414.378 287.386 414.367 287.363V287.306L414.684 287.454C414.503 287.76 414.356 288.088 414.14 288.394L413.846 288.179L413.925 288.088H413.993C413.993 288.088 414.072 288.088 414.095 288.168V288.224C414.095 288.224 414.163 288.315 414.152 288.292L413.982 288.473C413.865 288.595 413.74 288.709 413.608 288.813C413.529 288.745 413.529 288.689 413.506 288.7C413.483 288.711 413.506 288.7 413.506 288.643L413.449 288.541C413.449 288.541 413.506 288.609 413.449 288.621C413.393 288.632 413.449 288.723 413.449 288.723C413.447 288.746 413.453 288.77 413.465 288.79C413.477 288.811 413.496 288.827 413.517 288.836H413.461L413.245 288.972L412.792 289.221L412.611 288.881H412.69H412.826C412.996 288.881 413.03 289.301 412.939 289.21H412.883L412.701 289.278L412.362 289.369L412.01 289.459H411.84C411.84 289.459 411.84 289.55 411.772 289.289C411.772 289.289 411.772 289.063 411.772 289.085H411.931V289.471C411.701 289.488 411.47 289.488 411.24 289.471C411.123 289.482 411.005 289.482 410.889 289.471H410.764V289.278C410.764 289.278 410.764 289.165 410.764 289.108H410.889C410.889 289.108 410.889 289.199 410.889 289.21C410.889 289.221 410.889 289.21 410.889 289.278C410.889 289.278 410.889 289.278 410.889 289.357C410.898 289.391 410.898 289.426 410.889 289.459C410.655 289.415 410.425 289.358 410.197 289.289L410.027 289.233H409.925V289.165C409.928 289.127 409.928 289.089 409.925 289.051C410.073 288.757 409.993 288.893 410.016 288.859H410.084C410.084 288.859 410.084 288.995 410.027 289.017L409.937 289.176H409.858C409.898 289.188 409.941 289.188 409.982 289.176C410.014 289.169 410.043 289.156 410.069 289.136C410.094 289.116 410.115 289.091 410.129 289.063V289.006C410.129 289.006 410.129 289.006 409.971 289.006L409.835 289.199C409.559 289.05 409.243 288.996 408.933 289.045C408.624 289.095 408.34 289.244 408.124 289.471C407.926 289.725 407.819 290.038 407.819 290.36C407.819 290.682 407.926 290.995 408.124 291.249C408.387 291.475 408.691 291.648 409.019 291.759C409.369 291.89 409.729 291.993 410.095 292.065C410.841 292.222 411.607 292.249 412.362 292.145C413.209 292.04 414.025 291.761 414.759 291.324C415.492 290.887 416.127 290.302 416.622 289.607C417.547 288.288 417.95 286.673 417.755 285.074C417.591 283.628 416.906 282.291 415.829 281.313C414.882 280.442 413.7 279.871 412.43 279.67C411.406 279.478 410.35 279.564 409.37 279.919C409.195 280.023 409.041 280.16 408.919 280.324C408.796 280.487 408.707 280.673 408.656 280.871C408.577 281.211 408.634 281.569 408.815 281.868C408.928 282.08 409.09 282.262 409.287 282.4C409.484 282.538 409.71 282.627 409.948 282.661C410.06 282.943 410.212 283.206 410.401 283.443Z" fill="#263238"/>
<path d="M404.022 271.102C404.321 270.821 404.591 270.51 404.827 270.173C405.117 269.704 405.311 269.182 405.397 268.637C405.482 268.093 405.458 267.536 405.325 267.001C405.13 266.268 404.705 265.617 404.113 265.143C403.49 264.599 402.697 264.168 401.96 263.522C401.582 263.184 401.267 262.781 401.031 262.333C400.775 261.849 400.703 261.29 400.827 260.758C400.97 260.217 401.26 259.726 401.666 259.341C402.039 258.945 402.459 258.605 402.799 258.208C403.183 257.868 403.485 257.446 403.682 256.973C403.829 256.505 403.829 256.003 403.682 255.534C403.378 254.615 402.866 253.777 402.187 253.087C401.545 252.429 401.027 251.662 400.657 250.821C400.378 250.065 400.292 249.251 400.408 248.453C400.572 247.301 401.128 246.24 401.983 245.45C402.215 245.245 402.47 245.066 402.742 244.918L403.036 244.793C402.701 245.028 402.38 245.281 402.073 245.552C401.29 246.347 400.792 247.379 400.657 248.487C400.558 249.253 400.651 250.032 400.929 250.753C401.304 251.548 401.814 252.273 402.436 252.894C403.159 253.615 403.703 254.496 404.022 255.466C404.192 256.001 404.192 256.575 404.022 257.109C403.811 257.638 403.482 258.111 403.059 258.492C402.289 259.262 401.371 259.896 401.144 260.848C401.083 261.31 401.146 261.779 401.325 262.209C401.504 262.639 401.793 263.014 402.164 263.296C402.844 263.907 403.637 264.349 404.283 264.927C404.603 265.2 404.878 265.521 405.099 265.879C405.3 266.209 405.449 266.568 405.541 266.944C405.677 267.508 405.691 268.095 405.584 268.665C405.477 269.236 405.249 269.777 404.917 270.253C404.693 270.605 404.385 270.896 404.022 271.102Z" fill="#263238"/>
<path d="M399.072 271.102C399.365 270.818 399.631 270.507 399.865 270.173C400.161 269.707 400.358 269.184 400.444 268.639C400.529 268.093 400.502 267.535 400.364 267.001C400.179 266.263 399.752 265.609 399.151 265.143C398.528 264.599 397.735 264.168 397.01 263.522C396.628 263.187 396.313 262.784 396.081 262.333C395.821 261.851 395.745 261.291 395.865 260.758C396.017 260.221 396.306 259.733 396.704 259.341C397.089 258.945 397.497 258.605 397.837 258.208C398.214 257.865 398.511 257.443 398.709 256.973C398.866 256.506 398.866 256.001 398.709 255.534C398.405 254.615 397.893 253.777 397.214 253.087C396.572 252.427 396.051 251.66 395.673 250.821C395.394 250.065 395.308 249.251 395.423 248.453C395.586 247.298 396.147 246.236 397.01 245.45C397.238 245.24 397.493 245.061 397.769 244.918C397.86 244.86 397.959 244.818 398.063 244.793C397.728 245.028 397.407 245.281 397.1 245.552C396.317 246.348 395.816 247.379 395.673 248.487C395.572 249.254 395.67 250.034 395.956 250.753C396.331 251.548 396.841 252.273 397.463 252.894C398.182 253.618 398.725 254.498 399.049 255.466C399.219 256.001 399.219 256.575 399.049 257.109C398.834 257.635 398.505 258.107 398.086 258.492C397.316 259.262 396.387 259.896 396.16 260.848C396.101 261.31 396.165 261.779 396.344 262.208C396.522 262.637 396.811 263.012 397.18 263.296C397.859 263.907 398.664 264.349 399.298 264.927C399.622 265.2 399.901 265.521 400.126 265.879C400.318 266.214 400.466 266.572 400.567 266.944C400.698 267.509 400.71 268.094 400.603 268.664C400.495 269.233 400.271 269.774 399.944 270.253C399.723 270.599 399.424 270.89 399.072 271.102Z" fill="#263238"/>
<path d="M435.449 202.991L432.948 205.086L464.647 242.931L467.149 240.836L435.449 202.991Z" fill="#263238"/>
<path d="M439.145 197.681L436.643 199.776L468.342 237.621L470.844 235.526L439.145 197.681Z" fill="#263238"/>
<path d="M468.863 242.299L466.104 240.558L434.42 290.755L437.179 292.497L468.863 242.299Z" fill="#263238"/>
<path d="M476.009 243.687L473.25 241.945L442.183 291.165L444.942 292.907L476.009 243.687Z" fill="#263238"/>
<path d="M469.026 236.001L464.052 242.731C463.444 243.551 463.157 244.566 463.247 245.583C463.337 246.6 463.797 247.549 464.539 248.249C465.165 248.836 465.956 249.218 466.805 249.341C467.654 249.465 468.52 249.325 469.287 248.94L475.983 245.541C476.568 245.254 477.077 244.834 477.471 244.314C477.864 243.795 478.131 243.191 478.249 242.55L478.317 242.142C478.45 241.398 478.378 240.631 478.108 239.925C477.839 239.218 477.382 238.598 476.788 238.131L473.389 235.423C473.07 235.162 472.7 234.968 472.304 234.855C471.907 234.743 471.491 234.712 471.082 234.766C470.673 234.821 470.28 234.958 469.926 235.17C469.573 235.383 469.266 235.666 469.026 236.001Z" fill="#263238"/>
<path d="M469.025 236.001C469.025 236.001 469.082 235.842 469.286 235.616C469.596 235.271 469.985 235.007 470.419 234.845C471.102 234.591 471.854 234.591 472.538 234.845C472.954 234.995 473.338 235.222 473.671 235.514L474.804 236.397L476.073 237.372C476.558 237.709 477.013 238.088 477.433 238.505C477.889 239.007 478.223 239.608 478.41 240.26C478.596 240.912 478.63 241.599 478.509 242.267C478.434 243.015 478.175 243.733 477.753 244.356C477.332 244.979 476.762 245.488 476.096 245.836L472.039 247.886L469.988 248.929C469.316 249.331 468.568 249.59 467.79 249.688C467.075 249.754 466.355 249.645 465.691 249.372C465.028 249.099 464.44 248.668 463.979 248.118C463.518 247.568 463.197 246.914 463.044 246.213C462.89 245.511 462.91 244.783 463.099 244.091C463.27 243.504 463.555 242.958 463.938 242.482L464.901 241.213L467.847 237.383C468.191 236.906 468.57 236.456 468.98 236.035C468.709 236.558 468.39 237.054 468.028 237.519L465.23 241.462C464.522 242.279 463.959 243.21 463.564 244.215C463.415 244.797 463.4 245.406 463.52 245.994C463.639 246.583 463.891 247.137 464.255 247.615C464.661 248.135 465.192 248.544 465.797 248.806C466.403 249.067 467.065 249.172 467.722 249.11C468.429 249.017 469.108 248.777 469.716 248.408L471.767 247.365L475.812 245.314C476.359 245.005 476.833 244.58 477.199 244.069C477.566 243.558 477.817 242.974 477.936 242.356C478.054 241.739 478.037 241.103 477.886 240.493C477.734 239.882 477.452 239.312 477.059 238.822C476.662 238.411 476.234 238.033 475.778 237.689C475.348 237.338 474.94 236.998 474.532 236.681L473.399 235.763C473.093 235.484 472.74 235.262 472.356 235.106C471.725 234.892 471.04 234.892 470.408 235.106C469.894 235.314 469.425 235.618 469.025 236.001Z" fill="#455A64"/>
<path d="M418.662 297.526C418.662 297.526 422.537 289.3 437.753 289.322H444.756C444.756 289.322 458.432 292.268 460.075 297.548L418.662 297.526Z" fill="#263238"/>
<path d="M428.099 195.574L431.249 208.038C431.282 208.172 431.353 208.295 431.452 208.391C431.551 208.488 431.675 208.556 431.81 208.586C431.945 208.617 432.086 208.609 432.217 208.564C432.348 208.52 432.464 208.439 432.552 208.332L441.945 198.713C442.031 198.611 442.089 198.489 442.112 198.358C442.135 198.227 442.123 198.093 442.077 197.968C442.031 197.843 441.952 197.733 441.849 197.649C441.747 197.565 441.623 197.51 441.492 197.489L428.938 194.713C428.821 194.695 428.702 194.705 428.591 194.742C428.479 194.779 428.378 194.842 428.296 194.927C428.214 195.011 428.153 195.114 428.119 195.227C428.084 195.339 428.078 195.458 428.099 195.574Z" fill="#263238"/>
<path d="M428.099 195.574C428.099 195.574 428.02 195.483 428.031 195.268C428.047 195.103 428.113 194.947 428.221 194.822C428.328 194.696 428.472 194.606 428.632 194.565C428.856 194.52 429.087 194.52 429.312 194.565L430.071 194.712L431.929 195.086L436.858 196.117L439.826 196.752L441.424 197.092C441.606 197.112 441.781 197.176 441.933 197.279C442.085 197.382 442.21 197.52 442.296 197.681C442.386 197.863 442.421 198.067 442.397 198.268C442.373 198.469 442.291 198.659 442.16 198.814L437.98 203.108L432.756 208.434C432.641 208.57 432.493 208.673 432.326 208.735C432.159 208.797 431.979 208.814 431.804 208.786C431.628 208.757 431.463 208.684 431.324 208.572C431.185 208.461 431.077 208.316 431.011 208.15C430.864 207.595 430.762 207.153 430.637 206.677C430.411 205.737 430.196 204.831 429.98 203.981C429.584 202.304 429.221 200.82 428.915 199.539C428.609 198.259 428.439 197.398 428.258 196.627C428.154 196.281 428.097 195.923 428.088 195.562C428.236 195.891 428.353 196.232 428.439 196.582C428.655 197.341 428.926 198.293 429.244 199.449C429.561 200.604 429.992 202.202 430.433 203.867L431.147 206.541L431.521 207.958C431.552 208.033 431.603 208.1 431.667 208.15C431.731 208.201 431.807 208.234 431.888 208.247C431.969 208.259 432.052 208.251 432.129 208.222C432.205 208.193 432.273 208.145 432.326 208.082L437.526 202.734L441.719 198.451C441.778 198.378 441.815 198.289 441.825 198.195C441.834 198.101 441.817 198.006 441.773 197.922C441.73 197.838 441.663 197.768 441.581 197.721C441.499 197.675 441.405 197.653 441.311 197.658L439.724 197.296L436.756 196.616L431.85 195.483L430.003 195.03L429.255 194.848C429.068 194.774 428.867 194.743 428.666 194.758C428.535 194.784 428.415 194.847 428.318 194.939C428.222 195.032 428.154 195.149 428.122 195.279C428.088 195.46 428.122 195.574 428.099 195.574Z" fill="#455A64"/>
<path d="M418.809 231.106C425.03 222.779 428.553 214.303 427.964 205.636L416.282 194.384C404.952 190.611 389.373 202.497 389.373 202.497C389.373 202.497 393.236 223.458 418.809 231.106Z" fill="#263238"/>
<path d="M434.291 186.14L434.655 186.481C436.303 188.027 437.27 190.164 437.343 192.423C437.415 194.681 436.588 196.876 435.042 198.525L424.494 209.773L411.699 197.775L422.256 186.519C423.021 185.703 423.939 185.046 424.958 184.585C425.977 184.125 427.077 183.869 428.195 183.834C429.313 183.799 430.427 183.985 431.473 184.38C432.519 184.776 433.477 185.374 434.291 186.14Z" fill="#263238"/>
<path d="M427.171 205.239C426.328 205.268 425.489 205.129 424.701 204.831C422.762 204.229 420.973 203.221 419.454 201.874C417.925 200.529 416.698 198.877 415.851 197.025C415.465 196.281 415.226 195.469 415.149 194.634C415.564 195.35 415.943 196.088 416.282 196.843C417.195 198.578 418.416 200.133 419.885 201.432C421.36 202.723 423.052 203.743 424.882 204.446C426.264 204.967 427.182 205.137 427.171 205.239Z" fill="#455A64"/>
<path d="M473.07 240.034C473.07 240.243 473.008 240.446 472.892 240.62C472.776 240.793 472.612 240.928 472.419 241.008C472.227 241.087 472.015 241.108 471.811 241.068C471.606 241.027 471.418 240.927 471.271 240.779C471.124 240.632 471.023 240.444 470.983 240.24C470.942 240.035 470.963 239.823 471.043 239.631C471.122 239.438 471.257 239.274 471.431 239.158C471.604 239.042 471.808 238.98 472.016 238.98C472.155 238.98 472.292 239.008 472.419 239.061C472.547 239.114 472.663 239.191 472.761 239.289C472.859 239.387 472.937 239.503 472.99 239.631C473.043 239.759 473.07 239.896 473.07 240.034Z" fill="#455A64"/>
<path d="M434.048 203.551C434.048 203.759 433.986 203.963 433.87 204.136C433.755 204.31 433.59 204.445 433.397 204.524C433.205 204.604 432.993 204.625 432.789 204.584C432.584 204.544 432.396 204.443 432.249 204.296C432.102 204.149 432.001 203.961 431.961 203.756C431.92 203.552 431.941 203.34 432.021 203.148C432.1 202.955 432.235 202.79 432.409 202.675C432.582 202.559 432.786 202.497 432.994 202.497C433.274 202.497 433.542 202.608 433.739 202.806C433.937 203.003 434.048 203.271 434.048 203.551Z" fill="#455A64"/>
<path d="M438.048 199.46C438.048 199.668 437.986 199.872 437.87 200.045C437.755 200.219 437.59 200.354 437.397 200.434C437.205 200.513 436.993 200.534 436.789 200.493C436.584 200.453 436.396 200.352 436.249 200.205C436.102 200.058 436.001 199.87 435.961 199.666C435.92 199.461 435.941 199.249 436.021 199.057C436.1 198.864 436.235 198.7 436.409 198.584C436.582 198.468 436.786 198.406 436.994 198.406C437.133 198.406 437.27 198.434 437.397 198.486C437.525 198.539 437.641 198.617 437.739 198.715C437.837 198.813 437.915 198.929 437.968 199.057C438.021 199.185 438.048 199.322 438.048 199.46Z" fill="#455A64"/>
<path d="M468.799 243.864C468.799 244.073 468.737 244.276 468.621 244.45C468.506 244.623 468.341 244.758 468.148 244.838C467.956 244.918 467.744 244.938 467.54 244.898C467.335 244.857 467.147 244.757 467 244.609C466.853 244.462 466.752 244.274 466.712 244.07C466.671 243.865 466.692 243.654 466.772 243.461C466.851 243.268 466.986 243.104 467.16 242.988C467.333 242.872 467.537 242.811 467.745 242.811C468.025 242.811 468.293 242.922 468.49 243.119C468.688 243.317 468.799 243.585 468.799 243.864Z" fill="#455A64"/>
<path d="M427.024 315.903L426.707 498.72H256.206V315.404H245.272V498.72V508.884H256.206H426.707H437.641V498.72L437.958 315.903H427.024Z" fill="#E0E0E0"/>
<path d="M427.024 315.949H437.958H438.014C438.014 340.321 437.935 410.106 437.867 508.93V509.157H437.595H245.226H244.977V508.873C244.977 455.303 244.977 397.008 244.977 336.514V315.1H256.5V315.394C256.5 380.069 256.5 441.808 256.5 498.71L256.228 498.438L426.729 498.495L426.514 498.71C426.843 385.904 427.047 317.604 427.047 315.893C427.047 317.604 427.047 385.904 426.956 498.71V498.925H426.729L256.228 498.982H255.956V498.71C255.956 441.808 255.956 380.069 255.956 315.394L256.251 315.689H245.317L245.612 315.394V336.514C245.612 397.008 245.612 455.303 245.612 508.873L245.328 508.59L437.697 508.647L437.471 508.873C437.72 410.049 437.89 340.265 437.958 315.893L438.014 315.949H427.024Z" fill="#263238"/>
<path d="M470.884 297.525H223.834V317.24H470.884V297.525Z" fill="#AE7461"/>
<path d="M285.766 297.162L285.131 297.309C284.723 297.389 284.111 297.479 283.33 297.661C281.766 297.978 279.523 298.522 276.792 299.326C274.061 300.131 270.832 301.218 267.274 302.487C263.717 303.756 259.819 305.184 255.638 306.464C251.714 307.68 247.691 308.552 243.616 309.07C240.308 309.492 236.96 309.519 233.645 309.15C231.394 308.896 229.178 308.39 227.04 307.643C226.458 307.445 225.887 307.218 225.329 306.963C224.944 306.804 224.751 306.702 224.751 306.702C224.751 306.702 224.966 306.759 225.363 306.906C225.759 307.054 226.326 307.303 227.085 307.518C229.229 308.208 231.439 308.671 233.679 308.9C236.997 309.236 240.343 309.19 243.65 308.765C247.701 308.225 251.7 307.345 255.604 306.136C259.774 304.855 263.671 303.439 267.24 302.193C270.809 300.946 274.039 299.87 276.781 299.1C278.951 298.467 281.152 297.946 283.375 297.536C284.157 297.377 284.78 297.309 285.188 297.241C285.596 297.173 285.766 297.162 285.766 297.162Z" fill="#335F79"/>
<path d="M411.773 315.37C411.683 315.286 411.6 315.195 411.524 315.098C411.3 314.822 411.061 314.557 410.81 314.305C409.847 313.318 408.744 312.478 407.535 311.813C405.622 310.769 403.539 310.071 401.383 309.75C398.524 309.353 395.619 309.425 392.783 309.966C389.335 310.636 385.93 311.51 382.586 312.583C378.75 313.847 374.787 314.683 370.768 315.076C368.579 315.232 366.378 315.083 364.23 314.634C361.998 314.142 359.826 313.412 357.749 312.458C353.5 310.589 349.399 308.051 344.866 306.215C335.745 302.544 326.103 302.261 317.73 303.337C310.271 304.409 302.964 306.36 295.964 309.15C289.959 311.416 285.234 313.682 281.96 315.11L278.186 316.821C277.325 317.217 276.861 317.41 276.861 317.41C276.861 317.41 277.303 317.172 278.152 316.764L281.892 314.985C285.155 313.467 289.88 311.257 295.873 308.923C302.877 306.095 310.197 304.12 317.673 303.043C326.08 301.91 335.802 302.216 344.98 305.909C349.512 307.768 353.648 310.306 357.862 312.164C359.917 313.11 362.067 313.836 364.275 314.328C366.393 314.777 368.563 314.926 370.723 314.77C374.719 314.384 378.662 313.567 382.484 312.334C385.828 311.271 389.233 310.408 392.681 309.75C395.545 309.218 398.477 309.16 401.36 309.581C403.531 309.921 405.626 310.642 407.547 311.711C408.753 312.396 409.849 313.259 410.798 314.271C411.151 314.612 411.476 314.98 411.773 315.37Z" fill="#335F79"/>
<path d="M469.445 303.622C466.834 304.643 464.148 305.461 461.412 306.07C460.143 306.364 458.749 306.67 457.242 306.886C455.735 307.101 454.104 307.327 452.393 307.52C444.947 308.188 437.442 307.637 430.174 305.888C428.508 305.458 426.922 305.073 425.483 304.574C424.044 304.076 422.684 303.622 421.472 303.158C418.851 302.157 416.313 300.952 413.88 299.555C414.065 299.618 414.243 299.697 414.413 299.793L415.92 300.506C416.566 300.835 417.37 301.22 418.322 301.639C419.274 302.059 420.339 302.535 421.562 302.954C422.786 303.373 424.1 303.894 425.562 304.325C427.024 304.755 428.599 305.186 430.253 305.605C437.48 307.297 444.93 307.832 452.325 307.191C454.024 307.01 455.645 306.874 457.151 306.602C458.658 306.33 460.041 306.104 461.31 305.832C462.579 305.56 463.712 305.254 464.709 304.993C465.706 304.733 466.556 304.495 467.236 304.268L468.833 303.77C469.032 303.701 469.237 303.651 469.445 303.622Z" fill="#335F79"/>
<path d="M327.961 292.562H252.149C250.734 292.562 249.588 293.709 249.588 295.123V295.271C249.588 296.685 250.734 297.831 252.149 297.831H327.961C329.375 297.831 330.522 296.685 330.522 295.271V295.123C330.522 293.709 329.375 292.562 327.961 292.562Z" fill="#455A64"/>
<path d="M349.534 227.571L330.589 295.667C330.391 296.371 329.922 296.969 329.286 297.329C328.649 297.69 327.896 297.785 327.19 297.593C326.486 297.395 325.889 296.926 325.528 296.29C325.167 295.653 325.072 294.9 325.264 294.194L344.22 226.041C344.416 225.335 344.884 224.736 345.521 224.375C346.158 224.014 346.913 223.92 347.619 224.115C347.973 224.214 348.304 224.383 348.592 224.611C348.88 224.838 349.12 225.121 349.299 225.443C349.477 225.764 349.589 226.118 349.63 226.483C349.67 226.849 349.637 227.218 349.534 227.571Z" fill="#455A64"/>
<path d="M334.114 232.839C334.001 232.964 328.698 228.001 322.274 221.781C315.849 215.56 310.739 210.45 310.852 210.292C310.966 210.133 316.257 215.119 322.681 221.35C329.106 227.582 334.227 232.726 334.114 232.839Z" fill="#263238"/>
<path d="M331.53 240.986C330.882 240.799 330.249 240.56 329.638 240.273L324.596 238.154C320.324 236.363 314.399 233.927 307.861 231.355C301.323 228.783 295.295 226.563 290.956 224.976L285.766 223.039C285.128 222.84 284.506 222.59 283.908 222.291C284.569 222.411 285.217 222.589 285.846 222.824C287.081 223.209 288.86 223.787 291.046 224.534C295.431 226.019 301.448 228.183 308.042 230.766C314.636 233.35 320.506 235.854 324.721 237.734C326.839 238.686 328.539 239.468 329.706 240.001C330.336 240.286 330.946 240.616 331.53 240.986Z" fill="#263238"/>
<path d="M330.487 249.099C328.943 249.337 327.373 249.371 325.819 249.201C324.257 249.234 322.696 249.07 321.174 248.714C324.282 248.449 327.412 248.578 330.487 249.099Z" fill="#263238"/>
<path d="M468.437 476.661C468.437 476.661 463.734 444.267 464.12 425.424C464.505 406.582 464.12 385.371 464.12 385.371H466.295C466.295 385.371 464.822 422.762 466.42 445.343C468.017 467.925 472.232 476.661 472.232 476.661H468.459" fill="#263238"/>
<path d="M482.475 348.92C482.135 347.775 481.446 346.765 480.503 346.031C479.121 345.158 477.32 345.521 475.779 346.031C469.218 348.354 463.406 360.579 460.754 367.015L469.456 396.361C485.183 381.813 487.902 362.675 482.475 348.92Z" fill="#455A64"/>
<path d="M479.994 347.221C479.964 347.351 479.918 347.476 479.858 347.595C479.756 347.878 479.608 348.24 479.438 348.671C479.053 349.589 478.521 350.937 477.875 352.603C476.594 355.934 474.963 360.534 473.501 365.837C472.04 371.139 471.043 375.932 470.431 379.433C470.113 381.189 469.887 382.617 469.739 383.603C469.66 384.067 469.604 384.441 469.547 384.736C469.532 384.867 469.501 384.997 469.456 385.121C469.444 384.989 469.444 384.856 469.456 384.725C469.456 384.419 469.524 384.045 469.57 383.592C469.683 382.594 469.875 381.155 470.159 379.388C470.907 374.807 471.909 370.272 473.161 365.803C474.421 361.309 475.934 356.891 477.694 352.569C478.362 350.903 478.928 349.577 479.359 348.671C479.552 348.252 479.71 347.901 479.846 347.629C479.873 347.485 479.922 347.348 479.994 347.221Z" fill="#263238"/>
<path d="M465.593 403.432C461.627 401.177 458.308 397.939 455.956 394.03C453.605 390.121 452.299 385.672 452.166 381.111C451.849 374.608 453.854 368.217 456.12 362.099C456.258 361.549 456.582 361.064 457.038 360.728C457.413 360.586 457.819 360.543 458.216 360.602C458.612 360.662 458.987 360.822 459.304 361.068C465.23 364.467 468.833 370.891 470.737 377.44C472.115 381.785 472.574 386.369 472.085 390.901C471.337 395.664 469.072 400.059 465.627 403.432" fill="#455A64"/>
<path d="M465.593 403.432C465.578 403.3 465.578 403.167 465.593 403.035V401.902C465.593 400.916 465.593 399.5 465.468 397.755C465.238 393.196 464.731 388.656 463.95 384.159C463.055 378.901 461.956 374.199 461.14 370.8L460.177 366.766L459.927 365.633C459.889 365.508 459.867 365.379 459.859 365.248C459.919 365.363 459.965 365.485 459.995 365.611C460.075 365.905 460.177 366.256 460.313 366.744C460.573 367.684 460.947 369.01 461.389 370.743C462.261 374.142 463.406 378.845 464.312 384.113C465.088 388.609 465.561 393.151 465.729 397.71C465.729 399.455 465.729 400.871 465.729 401.857C465.729 402.31 465.729 402.684 465.729 402.99C465.702 403.142 465.657 403.291 465.593 403.432Z" fill="#263238"/>
<g opacity="0.3">
<path d="M465.594 403.432C461.628 401.177 458.309 397.939 455.957 394.03C453.606 390.121 452.3 385.672 452.167 381.111C451.85 374.608 453.855 368.217 456.121 362.099C456.258 361.549 456.583 361.064 457.039 360.728C457.414 360.586 457.82 360.543 458.216 360.602C458.613 360.662 458.988 360.822 459.305 361.068C465.231 364.467 468.834 370.891 470.738 377.44C472.116 381.785 472.575 386.369 472.086 390.901C471.338 395.664 469.073 400.059 465.628 403.432" fill="black"/>
</g>
<path d="M474.805 453.048C482.838 454.815 489.444 460.48 497.206 463.245C502.327 465.069 508.128 465.715 512.218 469.295C511.244 466.814 508.91 465.16 506.644 463.755C500.259 459.741 493.44 456.464 486.317 453.988C482.68 452.73 478.714 451.722 474.986 452.719" fill="#455A64"/>
<path d="M463.18 460.152C453.119 459.982 442.525 451.416 432.52 450.906C442.989 447.507 458.002 450.283 463.18 460.152Z" fill="#455A64"/>
<path d="M467.112 436.052C472.297 434.34 477.827 433.951 483.201 434.919C488.546 435.898 493.799 437.323 498.905 439.18C498.384 435.69 495.563 433.072 492.9 430.75C490.961 428.934 488.851 427.31 486.6 425.9C484.335 424.486 481.713 423.747 479.043 423.77C477.439 423.87 475.872 424.294 474.437 425.016C473.002 425.739 471.728 426.745 470.692 427.974C468.66 430.193 467.403 433.012 467.112 436.007" fill="#455A64"/>
<path d="M446.467 424.903C440.133 419.499 430.536 420.02 422.208 420.213C435.59 426.587 448.209 434.451 459.826 443.655C460.166 437.764 454.466 431.736 446.467 424.903Z" fill="#455A64"/>
<g opacity="0.3">
<path d="M446.467 424.903C440.133 419.499 430.536 420.02 422.208 420.213C435.59 426.587 448.209 434.451 459.826 443.655C460.166 437.764 454.466 431.736 446.467 424.903Z" fill="black"/>
</g>
<path d="M469.966 417.436C473.056 415.294 476.311 413.4 479.699 411.771C483.042 410.264 486.146 407.85 489.364 406.105C493.545 403.839 497.159 400.701 500.989 397.902C504.819 395.103 509.034 392.565 513.725 391.829C509.862 391.136 505.891 391.365 502.133 392.497C498.395 393.622 494.75 395.039 491.233 396.735C486.293 399.001 481.263 401.267 477.229 404.859C473.195 408.451 469.536 412.031 469.966 417.436Z" fill="#455A64"/>
<path d="M497.013 460.152L496.696 460.005L495.823 459.551C495.064 459.155 493.976 458.554 492.605 457.863C491.925 457.512 491.178 457.138 490.339 456.73C489.501 456.322 488.651 455.937 487.722 455.529C485.722 454.633 483.648 453.913 481.524 453.376C479.421 452.792 477.207 452.733 475.077 453.206C474.144 453.409 473.227 453.682 472.335 454.022C471.57 454.333 470.834 454.712 470.137 455.155C469.118 455.788 468.185 456.549 467.361 457.421C466.772 458.045 466.488 458.418 466.466 458.407C466.511 458.3 466.572 458.201 466.647 458.113C466.834 457.835 467.038 457.57 467.259 457.319C468.055 456.394 468.973 455.582 469.99 454.906C470.707 454.442 471.466 454.044 472.256 453.716C473.158 453.359 474.086 453.071 475.032 452.855C477.214 452.347 479.489 452.394 481.649 452.991C483.792 453.532 485.882 454.268 487.892 455.189C488.821 455.608 489.693 456.016 490.498 456.424C491.302 456.832 492.061 457.206 492.764 457.557C494.124 458.282 495.2 458.917 495.936 459.359L496.775 459.869C496.922 460.073 497.024 460.141 497.013 460.152Z" fill="#263238"/>
<path d="M455.724 455.154C455.944 455.187 456.158 455.252 456.359 455.347C456.918 455.548 457.463 455.787 457.991 456.061C459.757 456.947 461.38 458.093 462.806 459.46C464.231 460.822 465.442 462.392 466.398 464.117C466.69 464.637 466.951 465.174 467.18 465.726C467.277 465.922 467.346 466.132 467.384 466.349C467.327 466.349 466.953 465.522 466.183 464.253C464.158 460.926 461.294 458.19 457.877 456.321C456.518 455.562 455.656 455.222 455.724 455.154Z" fill="#263238"/>
<path d="M433.415 424.393C433.563 424.418 433.707 424.46 433.846 424.517L435.058 424.948L436.961 425.65C437.698 425.934 438.502 426.341 439.42 426.783C444.14 428.968 448.546 431.777 452.518 435.134C454.691 436.995 456.732 439.006 458.625 441.15C460.167 442.901 461.616 444.732 462.965 446.634C464.098 448.266 464.982 449.626 465.582 450.555L466.262 451.688C466.355 451.805 466.431 451.935 466.489 452.073C466.382 451.966 466.287 451.849 466.205 451.722C466.035 451.495 465.775 451.144 465.458 450.679C464.823 449.762 463.928 448.413 462.75 446.827C461.571 445.241 460.11 443.428 458.376 441.411C456.477 439.293 454.44 437.302 452.28 435.451C448.33 432.093 443.971 429.25 439.307 426.987C438.412 426.579 437.619 426.16 436.882 425.854L435.001 425.095L433.868 424.597C433.71 424.546 433.558 424.478 433.415 424.393Z" fill="#263238"/>
<path d="M482.215 430.385C481.944 430.384 481.674 430.349 481.41 430.284L480.481 430.114C480.13 430.046 479.711 430.046 479.246 430C476.86 429.787 474.462 430.258 472.335 431.36C471.171 431.971 470.109 432.759 469.185 433.694C468.423 434.453 467.747 435.293 467.168 436.198C466.642 437.042 466.18 437.925 465.786 438.838C465.812 438.568 465.881 438.304 465.99 438.056C466.24 437.359 466.562 436.691 466.953 436.062C467.507 435.114 468.181 434.242 468.958 433.467C469.883 432.485 470.967 431.665 472.165 431.043C474.349 429.907 476.824 429.454 479.269 429.74C479.733 429.808 480.164 429.83 480.515 429.921L481.444 430.148C481.708 430.203 481.966 430.282 482.215 430.385Z" fill="#263238"/>
<path d="M492.321 398.979C492.209 399.077 492.083 399.157 491.947 399.216L490.814 399.828C489.828 400.35 488.423 401.131 486.724 402.094C485.024 403.057 483.019 404.36 480.889 405.879C478.566 407.507 476.39 409.334 474.385 411.34C473.349 412.349 472.454 413.492 471.722 414.739C471.065 415.997 470.431 417.221 469.853 418.399C468.814 420.472 467.883 422.597 467.065 424.767C466.52 426.23 466.062 427.724 465.694 429.242C465.594 429.807 465.466 430.367 465.309 430.919C465.299 430.772 465.299 430.624 465.309 430.477C465.309 430.183 465.377 429.763 465.513 429.22C465.831 427.683 466.251 426.168 466.771 424.687C467.561 422.495 468.476 420.35 469.513 418.263C470.091 417.13 470.714 415.85 471.371 414.581C472.112 413.29 473.023 412.105 474.079 411.057C476.098 409.036 478.298 407.204 480.651 405.584C482.803 404.066 484.832 402.831 486.554 401.834C488.276 400.837 489.704 400.112 490.701 399.624L491.834 399.069L492.321 398.979Z" fill="#263238"/>
<path d="M464.109 429.447C464.014 429.171 463.949 428.887 463.916 428.597C463.791 427.985 463.644 427.203 463.474 426.274C462.535 421.157 460.927 416.186 458.693 411.488L457.718 409.335C457.576 409.078 457.465 408.804 457.39 408.52C457.565 408.753 457.717 409.004 457.843 409.267C458.103 409.766 458.477 410.48 458.976 411.375C460.143 413.713 461.139 416.133 461.956 418.615C462.75 421.104 463.356 423.649 463.769 426.229C463.927 427.226 464.041 428.019 464.097 428.586C464.129 428.872 464.133 429.16 464.109 429.447Z" fill="#263238"/>
<path d="M463.384 406.592C463.067 402.781 461.951 399.079 460.11 395.726C457.63 391.112 454.169 387.097 449.97 383.964C445.771 380.832 440.936 378.659 435.806 377.598L458.308 411.125L461.22 417.118C463.04 413.928 463.797 410.242 463.384 406.592Z" fill="#455A64"/>
<path d="M501.227 465.012H437.855V476.24H501.227V465.012Z" fill="#0C314D"/>
<path d="M442.592 474.01L451.09 508.862H490.056L496.491 474.01H442.592Z" fill="#0C314D"/>
<path d="M501.193 476.252C501.193 476.377 486.894 476.479 469.275 476.479C451.657 476.479 437.346 476.377 437.346 476.252C437.346 476.127 451.634 476.025 469.275 476.025C486.917 476.025 501.193 476.127 501.193 476.252Z" fill="#263238"/>
</svg>
