<svg width="17" height="17" viewBox="0 0 17 17" fill="none" xmlns="http://www.w3.org/2000/svg">
<g id="Group 125">
<circle id="Ellipse 4" cx="8.47552" cy="8.47552" r="8.47552" fill="#0C314D"/>
<g id="Layer_4_copy">
<path id="Vector" d="M6.56427 5.04864L12.7842 8.4773C13.035 8.61553 13.035 8.96116 12.7842 9.09938L6.56427 12.528C6.31354 12.6663 6 12.4935 6 12.217V5.35968C6 5.08324 6.31337 4.91042 6.56427 5.04864Z" fill="white"/>
<path id="Vector_2" d="M12.7845 8.47727L6.56451 5.04861C6.52699 5.02801 6.48818 5.01632 6.44921 5.00879L12.4624 8.32352C12.7132 8.46174 12.7132 8.80738 12.4624 8.9456L6.24244 12.3743C6.18624 12.4052 6.12714 12.4185 6.06885 12.4205C6.17449 12.5648 6.38464 12.627 6.56451 12.528L12.7845 9.09935C13.0352 8.96113 13.0352 8.61549 12.7845 8.47727Z" fill="white"/>
<path id="Vector_3" d="M6.56427 5.04864L12.7842 8.4773C13.035 8.61553 13.035 8.96116 12.7842 9.09938L6.56427 12.528C6.31354 12.6663 6 12.4935 6 12.217V5.35968C6 5.08324 6.31337 4.91042 6.56427 5.04864Z" stroke="white" stroke-width="0.161035" stroke-miterlimit="10"/>
</g>
</g>
</svg>
