<svg width="20" height="20" viewBox="0 0 20 20" fill="none" xmlns="http://www.w3.org/2000/svg">
<g id="material-symbols:other-admission-rounded">
<path id="Vector" d="M12.7083 15.625C12.875 15.625 13.0208 15.5625 13.1458 15.4375C13.2708 15.3125 13.3333 15.1667 13.3333 15C13.3333 14.8333 13.2708 14.6875 13.1458 14.5625C13.0208 14.4375 12.875 14.375 12.7083 14.375C12.5417 14.375 12.3958 14.4375 12.2708 14.5625C12.1458 14.6875 12.0833 14.8333 12.0833 15C12.0833 15.1667 12.1458 15.3125 12.2708 15.4375C12.3958 15.5625 12.5417 15.625 12.7083 15.625ZM15 15.625C15.1667 15.625 15.3125 15.5625 15.4375 15.4375C15.5625 15.3125 15.625 15.1667 15.625 15C15.625 14.8333 15.5625 14.6875 15.4375 14.5625C15.3125 14.4375 15.1667 14.375 15 14.375C14.8333 14.375 14.6875 14.4375 14.5625 14.5625C14.4375 14.6875 14.375 14.8333 14.375 15C14.375 15.1667 14.4375 15.3125 14.5625 15.4375C14.6875 15.5625 14.8333 15.625 15 15.625ZM17.2917 15.625C17.4583 15.625 17.6042 15.5625 17.7292 15.4375C17.8542 15.3125 17.9167 15.1667 17.9167 15C17.9167 14.8333 17.8542 14.6875 17.7292 14.5625C17.6042 14.4375 17.4583 14.375 17.2917 14.375C17.125 14.375 16.9792 14.4375 16.8542 14.5625C16.7292 14.6875 16.6667 14.8333 16.6667 15C16.6667 15.1667 16.7292 15.3125 16.8542 15.4375C16.9792 15.5625 17.125 15.625 17.2917 15.625ZM15 19.1667C13.8472 19.1667 12.8644 18.7603 12.0517 17.9475C11.2389 17.1347 10.8328 16.1522 10.8333 15C10.8333 13.8472 11.2397 12.8644 12.0525 12.0517C12.8653 11.2389 13.8478 10.8328 15 10.8333C16.1528 10.8333 17.1356 11.2397 17.9483 12.0525C18.7611 12.8653 19.1672 13.8478 19.1667 15C19.1667 16.1528 18.7603 17.1356 17.9475 17.9483C17.1347 18.7611 16.1522 19.1672 15 19.1667ZM6.66667 7.5H13.3333C13.5694 7.5 13.7675 7.42 13.9275 7.26C14.0875 7.1 14.1672 6.90222 14.1667 6.66667C14.1667 6.43056 14.0867 6.2325 13.9267 6.0725C13.7667 5.9125 13.5689 5.83278 13.3333 5.83333H6.66667C6.43056 5.83333 6.2325 5.91333 6.0725 6.07333C5.9125 6.23334 5.83278 6.43111 5.83333 6.66667C5.83333 6.90278 5.91333 7.10083 6.07333 7.26084C6.23334 7.42084 6.43111 7.50056 6.66667 7.5ZM9.72917 17.5H4.16667C3.70833 17.5 3.31583 17.3367 2.98917 17.01C2.6625 16.6833 2.49945 16.2911 2.5 15.8333V4.16667C2.5 3.70833 2.66333 3.31583 2.99 2.98917C3.31667 2.6625 3.70889 2.49945 4.16667 2.5H15.8333C16.2917 2.5 16.6842 2.66333 17.0108 2.99C17.3375 3.31667 17.5006 3.70889 17.5 4.16667V9.75C17.0972 9.55556 16.6908 9.40972 16.2808 9.3125C15.8708 9.21528 15.4439 9.16667 15 9.16667C14.8472 9.16667 14.7047 9.17 14.5725 9.17667C14.4403 9.18333 14.305 9.20083 14.1667 9.22917C14.0417 9.20139 13.9028 9.18417 13.75 9.1775C13.5972 9.17083 13.4583 9.16722 13.3333 9.16667H6.66667C6.43056 9.16667 6.2325 9.24667 6.0725 9.40667C5.9125 9.56667 5.83278 9.76445 5.83333 10C5.83333 10.2361 5.91333 10.4342 6.07333 10.5942C6.23334 10.7542 6.43111 10.8339 6.66667 10.8333H10.9375C10.6875 11.0694 10.4617 11.3264 10.26 11.6042C10.0583 11.8819 9.88139 12.1806 9.72917 12.5H6.66667C6.43056 12.5 6.2325 12.58 6.0725 12.74C5.9125 12.9 5.83278 13.0978 5.83333 13.3333C5.83333 13.5694 5.91333 13.7675 6.07333 13.9275C6.23334 14.0875 6.43111 14.1672 6.66667 14.1667H9.22917C9.20139 14.3056 9.18389 14.4411 9.17667 14.5733C9.16945 14.7056 9.16611 14.8478 9.16667 15C9.16667 15.4583 9.20833 15.8856 9.29167 16.2817C9.375 16.6778 9.52083 17.0839 9.72917 17.5Z" fill="#335F79"/>
</g>
</svg>
