<svg width="17" height="17" viewBox="0 0 17 17" fill="none" xmlns="http://www.w3.org/2000/svg">
<g id="Frame 95">
<path id="Vector" d="M4.4627 3.40039C4.29362 3.40039 4.13147 3.46756 4.01191 3.58711C3.89236 3.70666 3.8252 3.86882 3.8252 4.03789V10.4129C3.8252 10.582 3.89236 10.7441 4.01191 10.8637C4.13147 10.9832 4.29362 11.0504 4.4627 11.0504C4.63177 11.0504 4.79392 10.9832 4.91348 10.8637C5.03303 10.7441 5.1002 10.582 5.1002 10.4129V4.03789C5.1002 3.86882 5.03303 3.70666 4.91348 3.58711C4.79392 3.46756 4.63177 3.40039 4.4627 3.40039ZM8.5002 3.40039C8.33112 3.40039 8.16897 3.46756 8.04942 3.58711C7.92986 3.70666 7.8627 3.86882 7.8627 4.03789V7.86289C7.8627 8.03197 7.92986 8.19412 8.04942 8.31367C8.16897 8.43323 8.33112 8.50039 8.5002 8.50039C8.66927 8.50039 8.83142 8.43323 8.95098 8.31367C9.07053 8.19412 9.1377 8.03197 9.1377 7.86289V4.03789C9.1377 3.86882 9.07053 3.70666 8.95098 3.58711C8.83142 3.46756 8.66927 3.40039 8.5002 3.40039ZM11.9002 4.03789C11.9002 3.86882 11.9674 3.70666 12.0869 3.58711C12.2065 3.46756 12.3686 3.40039 12.5377 3.40039C12.7068 3.40039 12.8689 3.46756 12.9885 3.58711C13.108 3.70666 13.1752 3.86882 13.1752 4.03789V12.1129C13.1752 12.282 13.108 12.4441 12.9885 12.5637C12.8689 12.6832 12.7068 12.7504 12.5377 12.7504C12.3686 12.7504 12.2065 12.6832 12.0869 12.5637C11.9674 12.4441 11.9002 12.282 11.9002 12.1129V4.03789Z" fill="#234356"/>
<path id="Vector_2" d="M1.4875 0H15.5125C16.3336 0 17 0.6664 17 1.4875V15.5125C17 15.907 16.8433 16.2854 16.5643 16.5643C16.2854 16.8433 15.907 17 15.5125 17H1.4875C1.09299 17 0.714639 16.8433 0.435679 16.5643C0.156718 16.2854 0 15.907 0 15.5125V1.4875C0 0.6664 0.6664 0 1.4875 0ZM1.275 1.4875V15.5125C1.275 15.6298 1.3702 15.725 1.4875 15.725H15.5125C15.5689 15.725 15.6229 15.7026 15.6628 15.6628C15.7026 15.6229 15.725 15.5689 15.725 15.5125V1.4875C15.725 1.43114 15.7026 1.37709 15.6628 1.33724C15.6229 1.29739 15.5689 1.275 15.5125 1.275H1.4875C1.43114 1.275 1.37709 1.29739 1.33724 1.33724C1.29739 1.37709 1.275 1.43114 1.275 1.4875Z" fill="#234356"/>
</g>
</svg>
