<svg width="14" height="14" viewBox="0 0 14 14" fill="none" xmlns="http://www.w3.org/2000/svg">
<g id="searchmagnifierinterfacesymbol1_79893 (1) 1" clip-path="url(#clip0_1036_268)">
<g id="Group">
<path id="Vector" d="M5.72358 3.44629C3.57157 3.44629 1.82666 5.1912 1.82666 7.34322C1.82666 9.49525 3.57157 11.2402 5.72359 11.2402C6.55113 11.2402 7.31858 10.982 7.94943 10.5424L7.94989 10.5419L10.84 13.4321C10.8937 13.4857 10.9789 13.4871 11.034 13.4321L11.8129 12.6531C11.8665 12.5995 11.8638 12.5106 11.8124 12.4592L8.92273 9.56952C9.3624 8.93821 9.62051 8.17075 9.62051 7.34322C9.62051 5.1912 7.87561 3.44629 5.72358 3.44629ZM5.72358 10.3232C4.07769 10.3232 2.74357 8.98911 2.74357 7.34322C2.74357 5.69734 4.07771 4.36322 5.72358 4.36322C7.36945 4.36322 8.70358 5.69734 8.70358 7.34322C8.70358 8.98911 7.36946 10.3232 5.72358 10.3232Z" fill="#0C314D"/>
</g>
</g>
<defs>
<clipPath id="clip0_1036_268">
<rect width="12.3684" height="12.3684" fill="white" transform="translate(0.655273 0.939453)"/>
</clipPath>
</defs>
</svg>
