<svg width="19" height="19" viewBox="0 0 19 19" fill="none" xmlns="http://www.w3.org/2000/svg">
<g id="searchmagnifierinterfacesymbol1_79893 (1) 2" clip-path="url(#clip0_214_555)">
<g id="Group">
<path id="Vector" d="M7.38603 0C3.30803 0 0.00146484 3.30656 0.00146484 7.3846C0.00146484 11.4626 3.30803 14.7692 7.38607 14.7692C8.95423 14.7692 10.4085 14.2801 11.604 13.4469L11.6048 13.4461L17.0816 18.9228C17.1832 19.0245 17.3448 19.0271 17.4491 18.9228L18.9252 17.4468C19.0268 17.3451 19.0216 17.1766 18.9243 17.0793L13.4484 11.6034C14.2815 10.4071 14.7706 8.95273 14.7706 7.3846C14.7706 3.30656 11.4641 0 7.38603 0ZM7.38603 13.0316C4.26712 13.0316 1.73899 10.5035 1.73899 7.3846C1.73899 4.26569 4.26715 1.73756 7.38603 1.73756C10.5049 1.73756 13.0331 4.26569 13.0331 7.3846C13.0331 10.5035 10.5049 13.0316 7.38603 13.0316Z" fill="#0C314D"/>
</g>
</g>
<defs>
<clipPath id="clip0_214_555">
<rect width="19" height="19" fill="white"/>
</clipPath>
</defs>
</svg>
